<svg width="442" height="220" viewBox="0 0 442 220" fill="none" xmlns="http://www.w3.org/2000/svg">
<g clip-path="url(#clip0_27255_5423)">
<path d="M349.394 44.8469L349.082 44.56C349.044 44.5281 345.256 41.104 342.202 41.7097C339.148 42.3155 338.561 44.0307 338.535 44.1073L337.93 43.9032C337.93 43.8139 338.682 41.7671 342.074 41.0848C344.95 40.511 348.196 42.9978 349.203 43.8203C349.841 42.6024 352.111 38.7766 354.464 38.4833C357.174 38.1453 360.107 40.3962 360.202 40.4982L359.813 41.0019C359.782 41.0019 356.95 38.8085 354.515 39.089C352.079 39.3696 349.579 44.3942 349.554 44.4452L349.394 44.8469Z" fill="#2B1812"/>
<path d="M340.931 57.211L340.619 56.9241C340.58 56.8922 336.793 53.4617 333.738 54.0738C330.684 54.686 330.104 56.3948 330.078 56.465L329.473 56.2609C329.473 56.1781 330.219 54.1312 333.617 53.449C336.487 52.8751 339.732 55.3619 340.74 56.1844C341.377 54.9665 343.647 51.1343 346 50.841C348.717 50.5094 351.643 52.7539 351.739 52.8623L351.35 53.3661C351.35 53.3661 348.493 51.1662 346.058 51.4531C343.622 51.7401 341.122 56.7583 341.097 56.8093L340.931 57.211Z" fill="#2B1812"/>
<path d="M369.201 57.2112L368.889 56.9243C368.889 56.9243 366.013 54.3163 363.718 54.7754C361.422 55.2345 361.008 56.4907 360.989 56.548L360.383 56.344C360.383 56.2739 360.969 54.6734 363.571 54.1505C365.713 53.7233 368.137 55.4896 368.985 56.191C369.539 55.1771 371.229 52.3651 373.002 52.1611C375.093 51.906 377.35 53.6404 377.465 53.7169L377.076 54.2207C377.076 54.2207 374.934 52.5628 373.097 52.7987C371.618 52.9836 369.909 55.7701 369.386 56.835L369.201 57.2112Z" fill="#2B1812"/>
<path d="M402.448 70.2253L402.135 69.9384C402.135 69.9384 400.28 68.2678 398.839 68.5547C397.398 68.8416 397.143 69.6132 397.13 69.645L396.492 69.441C396.492 69.3964 396.9 68.2869 398.686 67.9298C400.057 67.6556 401.581 68.695 402.225 69.2051C402.652 68.4399 403.717 66.7693 404.877 66.6545C406.28 66.4696 407.81 67.6429 407.874 67.6939L407.485 68.1976C407.485 68.1976 406.095 67.1391 404.935 67.2858C404.01 67.4006 402.926 69.1987 402.582 69.8746L402.448 70.2253Z" fill="#2B1812"/>
<path d="M245.276 55.4638H117.914L118.258 54.9665C118.399 54.7624 121.695 50.0758 125.846 50.452C126.529 50.5157 127.179 50.5859 127.759 50.656C130.699 50.9812 132.822 51.2171 133.925 49.8398C134.334 49.2039 134.555 48.4658 134.563 47.7101C134.748 46.2244 134.952 44.5219 137.694 43.54C139.32 42.9469 141.009 43.3997 142.642 43.8396C144.389 44.3115 146.04 44.7578 147.494 43.9289C148.948 43.1 149.209 41.4357 149.477 39.6759C149.578 38.4595 149.928 37.2767 150.504 36.2007C152.257 33.478 156.083 32.0242 158.825 32.0242H158.876C160.725 32.0242 162.383 32.885 163.977 33.6948C165.801 34.6257 167.529 35.5057 169.448 35.1741C170.047 35.0251 170.602 34.7332 171.063 34.3235C171.525 33.9138 171.881 33.3984 172.101 32.8212C172.698 31.3502 173.136 29.8197 173.408 28.2557C173.969 25.5713 174.498 23.0334 177.055 20.6806C179.995 18.109 183.646 16.4883 187.525 16.0322C203.186 13.8132 220.485 25.4629 223.832 40.4857C223.832 40.6068 224.547 43.5208 227.167 43.5208C228.081 43.4328 228.978 43.2182 229.833 42.8832C233.072 41.8119 237.963 40.186 241.661 45.8801C246.373 53.1301 245.436 55.1322 245.315 55.3363L245.276 55.4638ZM119.17 54.8262H244.862C244.957 54.2587 244.957 52.0078 241.183 46.1989C237.752 40.9256 233.321 42.3731 230.088 43.4634C229.171 43.8306 228.207 44.0647 227.225 44.1585C224.088 44.1585 223.278 40.6642 223.265 40.6259C219.987 25.9028 203.026 14.4827 187.672 16.6634C183.922 17.0953 180.39 18.6512 177.54 21.1269C175.142 23.3395 174.632 25.7753 174.09 28.3577C173.811 29.9657 173.36 31.539 172.745 33.0508C172.488 33.7286 172.068 34.3325 171.522 34.8087C170.976 35.2848 170.32 35.6185 169.614 35.7799C167.484 36.1433 165.584 35.1422 163.741 34.2368C162.211 33.4589 160.623 32.6491 158.927 32.6363H158.876C156.268 32.6363 152.665 34.0838 151.09 36.5195C150.56 37.5373 150.244 38.6526 150.16 39.797C149.879 41.627 149.586 43.5208 147.858 44.5028C146.13 45.4848 144.319 44.9683 142.527 44.5028C140.99 44.0883 139.396 43.6611 137.961 44.184C135.589 45.0448 135.411 46.3966 135.251 47.8313C135.224 48.7087 134.948 49.5601 134.454 50.2862C133.135 51.9377 130.743 51.6699 127.721 51.3319C127.083 51.2618 126.446 51.1916 125.808 51.1342C122.773 50.8091 120.127 53.6466 119.17 54.8262Z" fill="#2B1812"/>
<path d="M267.639 22.4724H216.066L216.411 21.9686C216.468 21.8857 217.852 19.9154 219.599 20.0557L220.383 20.1386C221.614 20.2789 222.328 20.3299 222.685 19.8835C222.831 19.6572 222.908 19.3938 222.908 19.1247C222.91 18.7111 223.046 18.3092 223.295 17.9793C223.545 17.6493 223.894 17.4091 224.292 17.2947C224.986 17.1122 225.72 17.1523 226.39 17.4095C226.961 17.6623 227.608 17.6829 228.194 17.4669C228.698 17.1736 228.787 16.5806 228.896 15.8983C228.936 15.3815 229.086 14.8793 229.336 14.4253C229.746 13.8859 230.274 13.4471 230.88 13.1421C231.485 12.8372 232.152 12.6742 232.83 12.6654C233.584 12.7231 234.314 12.9591 234.96 13.3541C235.572 13.766 236.302 13.9674 237.038 13.928C237.247 13.8733 237.44 13.7695 237.601 13.6254C237.762 13.4812 237.886 13.3008 237.963 13.099C238.194 12.5187 238.365 11.9162 238.473 11.3009C238.607 10.1114 239.145 9.00389 239.997 8.16371C241.206 7.10603 242.706 6.43912 244.301 6.25079C250.678 5.34534 257.692 10.0766 259.075 16.2107C259.075 16.2554 259.337 17.2756 260.229 17.2756C260.575 17.2357 260.914 17.1499 261.237 17.0205C262.595 16.5742 264.635 15.8919 266.204 18.2958C268.072 21.1716 267.798 22.0834 267.671 22.2938L267.639 22.4724ZM217.354 21.8347H267.186C267.186 21.4968 266.976 20.5594 265.726 18.6465C264.476 16.7336 262.805 17.1927 261.498 17.6263C261.111 17.7808 260.702 17.8774 260.287 17.9132C259.856 17.8897 259.446 17.7213 259.123 17.4354C258.8 17.1495 258.583 16.7629 258.508 16.3383C257.232 10.5294 250.505 6.02124 244.448 6.88205C242.98 7.05488 241.598 7.66593 240.482 8.63556C239.726 9.38494 239.257 10.3754 239.155 11.4348C239.039 12.0896 238.855 12.7306 238.607 13.3477C238.49 13.6483 238.301 13.9156 238.056 14.1257C237.812 14.3359 237.519 14.4826 237.204 14.5529C236.331 14.6239 235.46 14.3994 234.73 13.9152C234.17 13.5652 233.538 13.3472 232.881 13.2776C232.305 13.2775 231.738 13.4098 231.221 13.664C230.705 13.9183 230.254 14.2879 229.903 14.7442C229.707 15.125 229.59 15.5413 229.559 15.9684C229.444 16.7081 229.31 17.5498 228.539 17.9897C227.767 18.4297 227.015 18.2065 226.256 17.9897C225.71 17.775 225.113 17.7284 224.541 17.8558C224.259 17.9269 224.01 18.0921 223.835 18.324C223.66 18.5559 223.569 18.8407 223.578 19.1311C223.565 19.5182 223.439 19.8931 223.214 20.2087C222.621 20.9548 221.614 20.8464 220.345 20.6997L219.573 20.6232C218.662 20.6232 217.826 21.3055 217.354 21.8347Z" fill="#2B1812"/>
<path d="M375.979 96.7255H324.406L324.757 96.2281C324.814 96.1452 326.198 94.1685 327.945 94.3152L328.729 94.3981C329.96 94.532 330.642 94.5894 331.031 94.143C331.176 93.9161 331.256 93.6535 331.261 93.3842C331.262 92.9714 331.397 92.5701 331.645 92.2403C331.894 91.9105 332.242 91.6698 332.638 91.5542C333.332 91.3682 334.067 91.4084 334.736 91.669C335.307 91.9232 335.956 91.9415 336.541 91.72C337.044 91.4331 337.134 90.8401 337.242 90.1514C337.285 89.6372 337.435 89.1377 337.682 88.6848C338.095 88.142 338.627 87.7011 339.237 87.3961C339.848 87.091 340.52 86.9298 341.202 86.9249C341.967 86.9814 342.708 87.2197 343.363 87.62C343.976 88.0297 344.705 88.231 345.442 88.1938C345.65 88.1387 345.842 88.0347 346.001 87.8906C346.161 87.7464 346.284 87.5662 346.36 87.3649C346.593 86.7853 346.764 86.1825 346.87 85.5668C347.004 84.3773 347.542 83.2698 348.394 82.4296C349.601 81.3695 351.103 80.7023 352.698 80.5167C359.075 79.6112 366.089 84.3425 367.472 90.4702C367.472 90.5212 367.734 91.5415 368.627 91.5415C368.972 91.4992 369.31 91.4135 369.634 91.2864C370.992 90.8337 373.039 90.1578 374.601 92.5617C376.47 95.4311 376.195 96.3493 376.074 96.5597L375.979 96.7255ZM325.694 96.0878H375.526C375.526 95.7563 375.315 94.8444 374.066 92.8996C372.816 90.9548 371.145 91.4458 369.838 91.8794C369.45 92.0339 369.042 92.1306 368.627 92.1663C368.198 92.1417 367.79 91.9737 367.469 91.6891C367.147 91.4046 366.931 91.0202 366.854 90.5977C365.579 84.7825 358.858 80.268 352.788 81.1352C351.319 81.3031 349.936 81.9123 348.821 82.8823C348.07 83.6348 347.602 84.6236 347.495 85.6815C347.379 86.3365 347.196 86.9776 346.947 87.5945C346.831 87.8955 346.644 88.1635 346.4 88.3748C346.157 88.5861 345.865 88.7342 345.55 88.806C344.676 88.8712 343.804 88.6471 343.07 88.1683C342.513 87.812 341.879 87.5934 341.221 87.5307C340.649 87.5387 340.087 87.6746 339.575 87.9283C339.063 88.1821 338.614 88.5474 338.262 88.9973C338.066 89.3781 337.949 89.7945 337.918 90.2215C337.803 90.9612 337.669 91.8029 336.904 92.2429C336.139 92.6828 335.374 92.4597 334.615 92.2429C334.07 92.0246 333.472 91.9779 332.9 92.109C332.612 92.1811 332.359 92.351 332.183 92.5895C332.008 92.8281 331.92 93.1203 331.937 93.4161C331.922 93.8018 331.798 94.1754 331.58 94.4937C330.98 95.2398 329.973 95.1314 328.704 94.9847C328.462 94.9847 328.2 94.9273 327.932 94.9082C327.001 94.8827 326.147 95.5841 325.694 96.0878Z" fill="#2B1812"/>
<path d="M299.109 93.2056H220.539L220.89 92.7083C220.973 92.5807 223.032 89.6412 225.659 89.8835L226.858 90.0047C228.624 90.2024 229.906 90.349 230.537 89.552C230.782 89.1712 230.915 88.7293 230.92 88.2767C230.911 87.6742 231.104 87.086 231.466 86.6046C231.828 86.1233 232.341 85.7761 232.922 85.6177C233.955 85.2415 235.013 85.5221 236.034 85.7963C237.054 86.0704 238.074 86.351 238.922 85.86C239.77 85.369 239.923 84.3871 240.083 83.3413C240.143 82.5763 240.36 81.8319 240.72 81.1542C241.817 79.4454 244.221 78.5335 245.936 78.5335C247.065 78.6291 248.156 78.9848 249.124 79.5729C250.234 80.134 251.273 80.6633 252.415 80.472C252.763 80.383 253.084 80.2114 253.352 79.9716C253.619 79.7318 253.825 79.431 253.951 79.0947C254.313 78.1981 254.58 77.2664 254.748 76.3146C255.099 74.6439 255.424 73.069 257.025 71.596C258.851 69.9984 261.119 68.9914 263.529 68.7075C273.202 67.3366 283.901 74.5355 285.974 83.826C286.012 84.0045 286.433 85.5986 287.887 85.5986C288.436 85.5393 288.975 85.4041 289.487 85.1969C291.515 84.5274 294.588 83.5071 296.896 87.1098C299.779 91.535 299.275 92.8486 299.147 93.0526L299.109 93.2056ZM221.808 92.568H298.682C298.682 92.1408 298.554 90.738 296.418 87.4669C294.365 84.2787 291.802 85.1522 289.749 85.8345C289.171 86.0646 288.563 86.2106 287.944 86.2681C286.356 86.2681 285.591 84.8462 285.393 84.0045C283.391 75.0201 273.036 68.0635 263.663 69.377C261.38 69.6416 259.232 70.5933 257.503 72.1061C256.056 73.4324 255.756 74.848 255.418 76.4803C255.243 77.4763 254.963 78.451 254.583 79.388C254.417 79.8229 254.147 80.2101 253.795 80.515C253.443 80.8198 253.022 81.0329 252.568 81.1351C251.216 81.3647 250.017 80.7653 248.882 80.1787C248.001 79.6359 247.005 79.3042 245.975 79.2094C244.4 79.2094 242.219 80.0639 241.269 81.5368C240.957 82.1306 240.768 82.7813 240.714 83.4498C240.535 84.6039 240.351 85.7963 239.241 86.4275C238.132 87.0588 236.997 86.7336 235.868 86.4275C234.899 86.1661 233.987 85.9174 233.139 86.2299C231.749 86.7336 231.659 87.5051 231.551 88.366C231.536 88.9301 231.357 89.4775 231.035 89.9409C230.18 91.0058 228.682 90.84 226.788 90.6296L225.602 90.502C223.957 90.3618 222.49 91.7837 221.808 92.568Z" fill="#2B1812"/>
<path d="M303.999 190.854C303.999 190.854 299.351 186.04 300.652 186.18C301.952 186.32 304.401 189.929 304.401 189.929C304.401 189.929 304.433 181.991 305.593 183.725C306.754 185.459 305.332 189.961 305.332 189.961C305.332 189.961 308.648 184.79 308.641 185.632C308.641 188.246 306.091 190.293 306.091 190.293C306.091 190.293 311.402 186.359 310.554 187.953C309.706 189.547 306.288 191.058 306.288 191.058C306.288 191.058 312.41 189.821 310.235 190.694C308.061 191.568 305.995 192.161 305.995 192.161H304.299C304.299 192.161 298.522 189.26 300.696 189.693C301.853 189.897 302.969 190.289 303.999 190.854Z" fill="#2B1812"/>
<path d="M365.397 175.78C365.397 175.78 361.775 172.031 362.796 172.146C363.816 172.26 365.71 175.06 365.71 175.06C365.71 175.06 365.71 168.881 366.641 170.233C367.572 171.584 366.43 175.085 366.43 175.085C366.43 175.085 369.013 171.062 368.981 171.718C368.981 173.752 366.991 175.347 366.991 175.347C366.991 175.347 371.123 172.28 370.447 173.523C369.771 174.766 367.132 175.94 367.132 175.94C367.132 175.94 371.895 174.977 370.199 175.653C368.503 176.329 366.896 176.794 366.896 176.794H365.582C365.582 176.794 361.08 174.537 362.777 174.881C363.693 175.035 364.579 175.339 365.397 175.78Z" fill="#2B1812"/>
<path d="M422.431 162.332C422.431 162.332 418.816 158.583 419.83 158.698C420.844 158.813 422.744 161.612 422.744 161.612C422.744 161.612 422.744 155.433 423.675 156.785C424.606 158.137 423.471 161.637 423.471 161.637C423.471 161.637 426.021 157.614 426.021 158.271C426.021 160.305 424.032 161.899 424.032 161.899C424.032 161.899 428.164 158.838 427.488 160.075C426.812 161.312 424.166 162.492 424.166 162.492C424.166 162.492 428.929 161.529 427.239 162.205C425.549 162.881 423.936 163.346 423.936 163.346H422.616C422.616 163.346 418.153 161.089 419.811 161.433C420.728 161.586 421.613 161.89 422.431 162.332Z" fill="#2B1812"/>
<path d="M349.738 193.047C349.738 193.047 345.415 188.584 346.633 188.705C347.85 188.826 350.114 192.186 350.114 192.186C350.114 192.186 350.114 184.809 351.224 186.448C352.333 188.086 351.013 192.193 351.013 192.193C351.013 192.193 354.099 187.385 354.093 188.169C354.093 190.599 351.715 192.499 351.715 192.499C351.715 192.499 356.65 188.845 355.84 190.325C355.03 191.804 351.88 193.213 351.88 193.213C351.88 193.213 357.568 192.065 355.547 192.875C353.525 193.685 351.6 194.233 351.6 194.233H350.031C350.031 194.233 344.656 191.542 346.677 191.944C347.75 192.145 348.784 192.518 349.738 193.047Z" fill="#D9B287"/>
<path d="M263.989 173.835L225.954 131.19L217.544 137.917L175.549 74.695L139.037 82.8313L128.095 62.3949L117.479 61.8338L97.4888 22.4021L67.5962 49.6804L53.1154 44.5091L0.452724 98.1984L0 97.752L52.9432 43.7694L67.4496 48.9535L97.6801 21.3691L117.881 61.2153L128.484 61.7764L139.369 82.1044L175.842 73.9808L175.963 74.1594L217.69 136.986L226.024 130.316L264.468 173.408L263.989 173.835Z" fill="#2B1812"/>
<path d="M267.624 176.965L267.148 177.389L271.159 181.886L271.635 181.462L267.624 176.965Z" fill="#2B1812"/>
<path d="M119.53 87.3928L116.367 88.251L116.534 88.8664L119.697 88.0082L119.53 87.3928Z" fill="#2B1812"/>
<path d="M139.047 82.1034L123.09 86.4329L123.257 87.0483L139.214 82.7188L139.047 82.1034Z" fill="#2B1812"/>
<path d="M79.1738 64.2506L78.6445 63.8935L87.5141 50.8028L86.9147 46.301L86.953 46.2118L97.2126 25.3928L97.7865 25.6734L87.5715 46.4094L88.1772 50.9558L79.1738 64.2506Z" fill="#2B1812"/>
<path d="M77.1549 66.0921L74.9141 69.4031L75.4421 69.7605L77.683 66.4495L77.1549 66.0921Z" fill="#2B1812"/>
<path d="M61.0538 77.1937L46.5547 96.8455L47.0678 97.224L61.5669 77.5723L61.0538 77.1937Z" fill="#2B1812"/>
<path d="M62.898 75.7726L62.3815 75.3964L64.3008 72.7948L65.1871 61.279L57.1146 54.6986L53.4609 46.4858L54.0412 46.2244L57.6311 54.3033L65.8503 60.9985L64.9257 73.0244L62.898 75.7726Z" fill="#2B1812"/>
<path d="M120.666 69.7916L117.746 64.9265L118.294 64.5949L120.807 68.7842L128.069 61.853L128.509 62.3121L120.666 69.7916Z" fill="#2B1812"/>
<path d="M267.942 171.789L267.527 171.304L278.648 161.771L300.595 166.477L334.664 118.781L334.888 118.858L356.663 126.121L374.523 100.908L374.785 101.087L433.46 142.476L433.091 142.999L374.676 101.795L356.912 126.873L334.907 119.54L300.876 167.191L278.82 162.466L267.942 171.789Z" fill="#2B1812"/>
<path d="M367.846 132.459L359.27 128.71L359.525 128.123L367.399 131.566L374.286 101.278L374.911 101.419L367.846 132.459Z" fill="#2B1812"/>
<path d="M317.967 171.45L305.871 169.353L305.979 168.721L317.54 170.73L334.673 120.86L335.279 121.064L317.967 171.45Z" fill="#2B1812"/>
<path d="M334.179 117.379C330.561 117.366 326.976 118.066 323.628 119.439C320.281 120.812 317.236 122.831 314.669 125.381C312.101 127.93 310.061 130.961 308.665 134.299C307.269 137.637 306.544 141.217 306.531 144.835C306.519 151.594 309.019 158.116 313.545 163.136C316.799 162.673 320.115 162.977 323.231 164.022C326.71 165.182 329.911 167.051 332.63 169.512H335.11C337.832 167.052 341.035 165.183 344.516 164.022C347.798 162.916 351.303 162.64 354.718 163.219C359.307 158.196 361.852 151.639 361.853 144.835C361.84 141.215 361.113 137.633 359.715 134.294C358.317 130.955 356.274 127.923 353.705 125.374C351.135 122.824 348.088 120.805 344.737 119.434C341.387 118.062 337.8 117.364 334.179 117.379Z" fill="#D9B287"/>
<path d="M347.048 155.847C346.198 156.272 345.348 156.698 344.497 157.123C343.664 157.574 342.857 158.072 342.081 158.615C341.794 158.812 341.513 159.023 341.226 159.252L345.76 150.816L339.543 160.547C338.905 161.057 338.268 161.573 337.687 162.103C336.688 162.953 335.711 163.846 334.754 164.781L334.435 155.631L340.939 145.728L334.435 154.221L334.148 146.034L333.664 155.21L333.198 164.392C332.363 163.607 331.521 162.842 330.648 162.09C329.966 161.497 329.27 160.91 328.563 160.349L322.684 150.306L327.001 159.163C326.752 158.985 326.51 158.8 326.254 158.627C325.478 158.085 324.671 157.587 323.838 157.135C323.009 156.695 322.161 156.268 321.287 155.86C319.586 155.029 317.84 154.29 316.059 153.648C317.783 154.405 319.465 155.256 321.096 156.198C321.912 156.657 322.716 157.129 323.506 157.614C324.283 158.1 325.03 158.633 325.744 159.208C327.166 160.345 328.522 161.563 329.806 162.855C330.928 163.971 332.025 165.131 333.071 166.298L332.522 177.916H335.245L334.856 166.732C336.023 165.393 337.267 164.079 338.542 162.81C339.825 161.519 341.182 160.301 342.604 159.163C343.318 158.588 344.065 158.056 344.842 157.569C345.632 157.084 346.436 156.613 347.252 156.153C348.885 155.212 350.569 154.36 352.296 153.603C350.507 154.254 348.755 155.004 347.048 155.847Z" fill="#2B1812"/>
<path d="M121.911 155.057C121.911 162.944 117.486 163.537 112.028 163.537C106.57 163.537 102.145 162.944 102.145 155.057C102.145 147.169 106.57 130.673 112.028 130.673C117.486 130.673 121.911 147.163 121.911 155.057Z" fill="#D9B287"/>
<path d="M115.376 158.634L113.744 158.749L117.997 155.879L114.961 157.416L115.376 156.211L113.986 157.907L112.354 158.73L112.226 153.067L113.093 150.97L112.207 152.149L112.13 148.865L114.84 145.25L112.111 148.043L111.945 140.812L111.799 145.441L110.064 143.503L111.773 146.328L111.544 153.66L110.026 152.672L108.649 150.23L109.204 152.13L106.5 150.364L111.512 154.687L110.753 178.745H112.813L112.379 159.667L112.857 159.348L115.376 158.634Z" fill="#2B1812"/>
<path d="M387.69 127.887C387.69 143.299 379.043 144.466 368.382 144.466C357.721 144.466 349.074 143.299 349.074 127.887C349.074 112.475 357.714 80.2424 368.382 80.2424C379.05 80.2424 387.69 112.488 387.69 127.887Z" fill="#D9B287"/>
<path opacity="0.31" d="M387.69 127.887C387.69 143.299 379.043 144.466 368.382 144.466C357.721 144.466 349.074 143.299 349.074 127.887C349.074 112.475 357.714 80.2424 368.382 80.2424C379.05 80.2424 387.69 112.488 387.69 127.887Z" fill="white"/>
<path d="M374.909 134.882L371.714 135.098L380.029 129.494L374.093 132.497L374.909 130.15L372.192 133.453L369.004 135.067L368.749 123.997L370.439 119.897L368.711 122.205L368.564 115.784L373.857 108.732L368.526 114.184L368.201 100.054L367.92 109.102L364.522 105.314L367.863 110.836L367.41 125.158L364.458 123.226L361.767 118.456L362.845 122.173L357.559 118.717L367.346 127.16L365.867 174.173H369.897L369.042 136.897L369.98 136.272L374.909 134.882Z" fill="#2B1812"/>
<path d="M429.021 133.951C429.021 141.845 424.596 142.438 419.137 142.438C413.679 142.438 409.254 141.845 409.254 133.951C409.254 126.057 413.679 109.574 419.137 109.574C424.596 109.574 429.021 126.063 429.021 133.951Z" fill="#D9B287"/>
<path opacity="0.5" d="M429.021 133.951C429.021 141.845 424.596 142.438 419.137 142.438C413.679 142.438 409.254 141.845 409.254 133.951C409.254 126.057 413.679 109.574 419.137 109.574C424.596 109.574 429.021 126.063 429.021 133.951Z" fill="white"/>
<path d="M422.481 137.534L420.849 137.643L425.102 134.773L422.061 136.31L422.481 135.111L421.091 136.801L419.459 137.63L419.332 131.961L420.192 129.864L419.312 131.043L419.236 127.759L421.946 124.15L419.217 126.943L419.051 119.712L418.904 124.335L417.17 122.403L418.879 125.228L418.643 132.561L417.132 131.566L415.754 129.124L416.309 131.031L413.605 129.258L418.611 133.581L417.852 157.639H419.918L419.485 138.567L419.956 138.242L422.481 137.534Z" fill="#2B1812"/>
<path d="M26.2434 127.281C26.2434 135.169 21.8182 135.768 16.36 135.768C10.9018 135.768 6.47656 135.169 6.47656 127.281C6.47656 119.394 10.9018 102.923 16.36 102.923C21.8182 102.923 26.2434 119.394 26.2434 127.281Z" fill="#D9B287"/>
<path opacity="0.5" d="M26.2434 127.281C26.2434 135.169 21.8182 135.768 16.36 135.768C10.9018 135.768 6.47656 135.169 6.47656 127.281C6.47656 119.394 10.9018 102.923 16.36 102.923C21.8182 102.923 26.2434 119.394 26.2434 127.281Z" fill="white"/>
<path d="M19.7041 130.858L18.0717 130.973L22.3248 128.104L19.2832 129.64L19.7041 128.442L18.314 130.131L16.6817 130.954L16.5541 125.292L17.4149 123.194L16.535 124.374L16.4585 121.09L19.1621 117.481L16.4394 120.267L16.2736 113.043L16.1269 117.666L14.3925 115.727L16.1014 118.558L15.8719 125.885L14.3543 124.896L12.977 122.454L13.5317 124.361L10.8281 122.588L15.8336 126.911L15.0748 150.97H17.1408L16.7072 131.891L17.179 131.573L19.7041 130.858Z" fill="#2B1812"/>
<path d="M75.2106 109.389C71.5924 109.377 68.0071 110.077 64.6595 111.45C61.3118 112.823 58.2674 114.842 55.7 117.391C53.1327 119.941 51.0926 122.971 49.6964 126.309C48.3002 129.647 47.5751 133.228 47.5625 136.846C47.5506 143.607 50.0503 150.131 54.5766 155.153C57.8296 154.687 61.1464 154.989 64.2623 156.033C67.7414 157.193 70.9418 159.062 73.6611 161.523H76.1926C78.9147 159.063 82.1171 157.193 85.5978 156.033C88.8813 154.933 92.3848 154.657 95.8 155.229C100.38 150.203 102.916 143.646 102.91 136.846C102.896 133.224 102.169 129.64 100.769 126.299C99.3695 122.958 97.3249 119.925 94.7523 117.375C92.1797 114.825 89.1296 112.807 85.7764 111.437C82.4233 110.067 78.8329 109.371 75.2106 109.389Z" fill="#D9B287"/>
<path opacity="0.33" d="M75.2106 109.389C71.5924 109.377 68.0071 110.077 64.6595 111.45C61.3118 112.823 58.2674 114.842 55.7 117.391C53.1327 119.941 51.0926 122.971 49.6964 126.309C48.3002 129.647 47.5751 133.228 47.5625 136.846C47.5506 143.607 50.0503 150.131 54.5766 155.153C57.8296 154.687 61.1464 154.989 64.2623 156.033C67.7414 157.193 70.9418 159.062 73.6611 161.523H76.1926C78.9147 159.063 82.1171 157.193 85.5978 156.033C88.8813 154.933 92.3848 154.657 95.8 155.229C100.38 150.203 102.916 143.646 102.91 136.846C102.896 133.224 102.169 129.64 100.769 126.299C99.3695 122.958 97.3249 119.925 94.7523 117.375C92.1797 114.825 89.1296 112.807 85.7764 111.437C82.4233 110.067 78.8329 109.371 75.2106 109.389Z" fill="white"/>
<path d="M88.0734 147.864C87.2232 148.289 86.373 148.714 85.5228 149.14C84.6885 149.586 83.8815 150.082 83.1062 150.625L82.2517 151.263L86.7854 142.821L80.5684 152.557C79.935 153.063 79.3165 153.58 78.7129 154.107C77.7118 154.98 76.7362 155.867 75.7797 156.785L75.4609 147.635L81.9648 137.732L75.4162 146.251L75.1293 138.057L74.6638 147.22L74.1984 156.409C73.3631 155.618 72.5214 154.853 71.6478 154.1C70.9677 153.51 70.2726 152.929 69.5627 152.36L63.6837 142.317L68.0005 151.18C67.7518 150.995 67.5095 150.817 67.2545 150.638C66.4792 150.095 65.6722 149.599 64.8378 149.152C64.0089 148.706 63.1608 148.279 62.2872 147.877C60.5856 147.046 58.8402 146.307 57.0586 145.664C58.8056 146.411 60.5087 147.256 62.1597 148.196C62.9759 148.655 63.7793 149.129 64.57 149.618C65.3467 150.102 66.094 150.633 66.8081 151.206C68.2286 152.345 69.5846 153.563 70.8699 154.853C71.9921 155.969 73.0889 157.129 74.1346 158.302L73.5416 169.959H76.2643L75.8753 158.774C77.0422 157.435 78.2856 156.122 79.5609 154.853C80.8461 153.563 82.2022 152.345 83.6227 151.206C84.3368 150.633 85.0841 150.102 85.8608 149.618C86.6387 149.095 87.44 148.621 88.2647 148.196C89.8976 147.265 91.5815 146.426 93.3084 145.684C91.525 146.315 89.7774 147.043 88.0734 147.864Z" fill="#2B1812"/>
<path d="M151.965 191.332V166.05H119.031V149.854L147.279 82.9014H171.375V150.236H181.813V166.05H171.375V191.351L151.965 191.332ZM135.387 150.236H151.965V104.199L135.387 150.236Z" fill="#2B1812"/>
<path d="M220.637 191.39C214.121 191.39 208.722 190.051 204.441 187.372C200.192 184.74 196.831 180.893 194.794 176.329C192.668 171.653 191.605 166.233 191.605 160.069V111.474C191.605 105.14 192.63 99.5864 194.679 94.8126C196.605 90.1866 199.929 86.2785 204.186 83.6348C208.471 80.9567 213.959 79.6177 220.65 79.6177C227.256 79.6177 232.678 80.9567 236.916 83.6348C241.138 86.2995 244.434 90.2034 246.353 94.8126C248.402 99.5822 249.427 105.136 249.427 111.474V160.069C249.427 166.22 248.364 171.64 246.238 176.329C244.203 180.892 240.844 184.739 236.597 187.372C232.291 190.051 226.971 191.39 220.637 191.39ZM220.637 173.185C223.047 173.185 224.788 172.426 225.859 170.909C226.97 169.285 227.703 167.433 228.002 165.489C228.34 163.566 228.519 161.619 228.538 159.667V111.85C228.529 109.788 228.371 107.73 228.066 105.691C227.812 103.705 227.102 101.804 225.993 100.137C224.922 98.5811 223.137 97.8011 220.637 97.7968C218.138 97.7925 216.331 98.5726 215.217 100.137C214.067 101.789 213.332 103.694 213.075 105.691C212.769 107.73 212.611 109.788 212.603 111.85V159.673C212.618 161.626 212.797 163.573 213.139 165.495C213.441 167.461 214.223 169.323 215.415 170.915C216.575 172.428 218.316 173.185 220.637 173.185Z" fill="#2B1812"/>
<path d="M293.588 191.332V166.05H260.66V149.854L288.901 82.9014H312.998V150.236H323.436V166.05H312.998V191.351L293.588 191.332ZM277.009 150.236H293.588V104.199L277.009 150.236Z" fill="#2B1812"/>
<path d="M441.628 139.039C399.939 166.369 317.607 184.949 222.854 184.949C125.193 184.949 40.7245 165.183 0.355469 136.489V246.392H441.602L441.628 139.039Z" fill="white"/>
<path d="M222.845 185.287C175.628 185.287 129.705 180.626 90.044 171.808C51.4157 163.225 20.3372 151.103 0.136719 136.737L0.50655 136.221C20.6113 150.517 51.607 162.6 90.1587 171.17C129.807 179.995 175.66 184.65 222.845 184.65C308.378 184.65 386.719 169.531 432.406 144.211L432.718 144.772C386.948 170.137 308.493 185.287 222.845 185.287Z" fill="#2B1812"/>
<path d="M436.099 142.846L435.773 142.298C437.801 141.105 439.778 139.875 441.646 138.65L441.997 139.18C440.116 140.417 438.133 141.647 436.099 142.846Z" fill="#2B1812"/>
<path d="M415.017 132.669C415.017 148.789 405.975 150.007 394.829 150.007C383.683 150.007 374.609 148.789 374.609 132.669C374.609 116.55 383.651 82.8567 394.803 82.8567C405.956 82.8567 415.017 116.55 415.017 132.669Z" fill="#D9B287"/>
<path d="M401.65 139.983L398.309 140.213L407.013 134.353L400.796 137.49L401.65 135.041L398.813 138.497L395.478 140.181L395.216 128.601L396.983 124.323L395.172 126.726L395.019 120.018L400.553 112.641L394.98 118.342L394.642 103.567L394.343 113.024L390.798 109.064L394.285 114.841L393.814 129.819L390.727 127.798L387.909 122.811L389.038 126.695L383.516 123.086L393.75 131.91L392.2 181.073H396.415L395.522 142.094L396.498 141.437L401.65 139.983Z" fill="#2B1812"/>
<path d="M393.461 181.506C393.461 181.506 386.013 173.784 388.105 174.014C390.196 174.243 394.105 180.02 394.105 180.02C394.105 180.02 394.162 167.268 396.018 170.08C397.873 172.892 395.591 180.078 395.591 180.078C395.591 180.078 400.902 171.788 400.896 173.14C400.858 177.33 396.796 180.607 396.796 180.607C396.796 180.607 405.315 174.301 403.937 176.89C402.56 179.478 397.102 181.863 397.102 181.863C397.102 181.863 406.915 179.88 403.427 181.277C399.939 182.673 396.624 183.629 396.624 183.629H393.914C393.914 183.629 384.649 178.981 388.137 179.676C390 179.988 391.799 180.607 393.461 181.506Z" fill="#2B1812"/>
<path d="M36.4815 171.916C36.4815 171.916 30.0349 165.24 31.8395 165.444C33.644 165.648 37.0362 170.634 37.0362 170.634C37.0362 170.634 37.0809 159.629 38.6941 162.039C40.3073 164.449 38.3243 170.679 38.3243 170.679C38.3243 170.679 42.9216 163.512 42.9089 164.679C42.9089 168.307 39.37 171.138 39.37 171.138C39.37 171.138 46.7284 165.686 45.5232 167.899C44.3181 170.111 39.6123 172.197 39.6123 172.197C39.6123 172.197 48.0993 170.488 45.0833 171.693C42.0672 172.898 39.2042 173.701 39.2042 173.701H36.8513C36.8513 173.701 28.8426 169.684 31.8522 170.284C33.4738 170.572 35.0374 171.124 36.4815 171.916Z" fill="#2B1812"/>
<path d="M59.7779 123.883C59.7779 140.021 50.7298 141.239 39.5648 141.239C28.3997 141.239 19.3516 140.021 19.3516 123.883C19.3516 107.744 28.406 74.0127 39.5648 74.0127C50.7235 74.0127 59.7779 107.744 59.7779 123.883Z" fill="#D9B287"/>
<path d="M46.3983 131.203L43.057 131.432L51.7608 125.566L45.5438 128.709L46.3983 126.255L43.5544 129.717L40.2195 131.4L39.9581 119.814L41.7244 115.523L39.9135 117.933L39.7604 111.213L45.3015 103.829L39.7222 109.542L39.3842 94.7488L39.0845 104.218L35.5329 100.252L39.0271 106.035L38.5553 121.026L35.4627 119.005L32.6444 114.012L33.773 117.901L28.2383 114.286L38.4915 123.124L36.9357 172.337H41.1569L40.2642 133.32L41.2398 132.663L46.3983 131.203Z" fill="#2B1812"/>
<path d="M107.047 188.692C107.047 188.692 100.6 182.016 102.411 182.22C104.222 182.424 107.608 187.411 107.608 187.411C107.608 187.411 107.652 176.405 109.259 178.815C110.866 181.226 108.889 187.455 108.889 187.455C108.889 187.455 113.487 180.288 113.48 181.455C113.48 185.083 109.935 187.914 109.935 187.914C109.935 187.914 117.3 182.463 116.095 184.675C114.89 186.888 110.177 189.005 110.177 189.005C110.177 189.005 118.664 187.296 115.648 188.501C112.632 189.706 109.763 190.535 109.763 190.535H107.435C107.435 190.535 99.4204 186.518 102.436 187.117C104.048 187.389 105.606 187.921 107.047 188.692Z" fill="#2B1812"/>
<path d="M141.232 203.326C141.232 203.326 134.786 196.65 136.597 196.854C138.408 197.058 141.793 202.044 141.793 202.044C141.793 202.044 141.838 191.039 143.445 193.449C145.052 195.859 143.075 202.089 143.075 202.089C143.075 202.089 147.673 194.922 147.666 196.095C147.634 199.717 144.121 202.548 144.121 202.548C144.121 202.548 151.486 197.096 150.28 199.309C149.075 201.522 144.421 203.607 144.421 203.607C144.421 203.607 152.908 201.898 149.892 203.103C146.875 204.308 144.006 205.137 144.006 205.137H141.666C141.666 205.137 133.651 201.12 136.667 201.719C138.265 202.005 139.807 202.548 141.232 203.326Z" fill="#2B1812"/>
<path d="M233.009 193.5C233.009 193.5 228.361 188.686 229.668 188.833C230.975 188.979 233.411 192.576 233.411 192.576C233.411 192.576 233.449 184.637 234.61 186.378C235.77 188.118 234.342 192.614 234.342 192.614C234.342 192.614 237.658 187.436 237.651 188.284C237.651 190.899 235.101 192.939 235.101 192.939C235.101 192.939 240.412 189.005 239.564 190.605C238.716 192.206 235.298 193.704 235.298 193.704C235.298 193.704 241.42 192.467 239.239 193.341C237.058 194.214 234.999 194.807 234.999 194.807H233.309C233.309 194.807 227.525 191.906 229.7 192.34C230.858 192.546 231.976 192.938 233.009 193.5Z" fill="#2B1812"/>
<path d="M413.504 181.991C413.504 181.991 409.889 178.241 410.903 178.356C411.916 178.471 413.817 181.27 413.817 181.27C413.817 181.27 413.817 175.091 414.748 176.443C415.678 177.795 414.537 181.296 414.537 181.296C414.537 181.296 417.088 177.272 417.088 177.929C417.088 179.963 415.098 181.551 415.098 181.551C415.098 181.551 419.23 178.49 418.554 179.733C417.878 180.977 415.238 182.144 415.238 182.144C415.238 182.144 420.002 181.187 418.306 181.863C416.609 182.539 415.003 183.004 415.003 183.004H413.695C413.695 183.004 409.194 180.747 410.89 181.092C411.805 181.244 412.689 181.548 413.504 181.991Z" fill="#2B1812"/>
<path d="M169.86 193.526C169.86 193.526 163.414 186.85 165.224 187.054C167.035 187.258 170.421 192.244 170.421 192.244C170.421 192.244 170.466 181.238 172.073 183.649C173.68 186.059 171.709 192.295 171.709 192.295C171.709 192.295 176.307 185.121 176.294 186.295C176.262 189.917 172.755 192.748 172.755 192.748C172.755 192.748 180.113 187.296 178.908 189.508C177.703 191.721 172.997 193.806 172.997 193.806C172.997 193.806 181.478 192.097 178.462 193.302C175.446 194.508 172.583 195.336 172.583 195.336H170.236C170.236 195.336 162.221 191.319 165.237 191.919C166.855 192.199 168.417 192.741 169.86 193.526Z" fill="#D9B287"/>
<path d="M123.378 189.094C123.378 189.094 119.054 184.63 120.272 184.745C121.49 184.86 123.754 188.233 123.754 188.233C123.754 188.233 123.754 180.849 124.863 182.494C125.973 184.139 124.615 188.29 124.615 188.29C124.615 188.29 127.701 183.476 127.695 184.267C127.695 186.696 125.316 188.596 125.316 188.596C125.316 188.596 130.251 184.936 129.442 186.422C128.632 187.908 125.482 189.304 125.482 189.304C125.482 189.304 131.17 188.156 129.148 188.966C127.127 189.776 125.201 190.331 125.201 190.331H123.633C123.633 190.331 118.257 187.634 120.279 188.042C121.363 188.219 122.41 188.575 123.378 189.094Z" fill="#D9B287"/>
<path d="M69.3421 206.782C69.3421 206.782 65.0189 202.319 66.2368 202.44C67.4547 202.561 69.7183 205.921 69.7183 205.921C69.7183 205.921 69.7502 198.537 70.8278 200.182C71.9054 201.828 70.5791 205.979 70.5791 205.979C70.5791 205.979 73.6398 201.12 73.6398 201.93C73.6398 204.359 71.2614 206.259 71.2614 206.259C71.2614 206.259 76.1968 202.599 75.3933 204.085C74.5899 205.57 71.4272 206.967 71.4272 206.967C71.4272 206.967 77.115 205.819 75.0936 206.629C73.0723 207.439 71.1466 207.994 71.1466 207.994H69.5781C69.5781 207.994 64.2027 205.296 66.2241 205.704C67.3161 205.888 68.3699 206.252 69.3421 206.782Z" fill="#D9B287"/>
<path d="M213.917 207.649C213.917 207.649 209.594 203.186 210.805 203.307C212.017 203.428 214.293 206.788 214.293 206.788C214.293 206.788 214.325 199.405 215.403 201.05C216.48 202.695 215.154 206.846 215.154 206.846C215.154 206.846 218.24 202.038 218.228 202.822C218.228 205.252 215.856 207.152 215.856 207.152C215.856 207.152 220.791 203.492 219.981 204.977C219.171 206.463 216.015 207.86 216.015 207.86C216.015 207.86 221.709 206.712 219.688 207.522C217.666 208.331 215.741 208.886 215.741 208.886H214.166C214.166 208.886 208.797 206.189 210.818 206.597C211.902 206.774 212.949 207.13 213.917 207.649Z" fill="#D9B287"/>
<path d="M284.061 207.879C284.061 207.879 279.744 203.415 280.956 203.537C282.167 203.658 284.437 207.024 284.437 207.024C284.437 207.024 284.469 199.641 285.547 201.286C286.625 202.931 285.298 207.075 285.298 207.075C285.298 207.075 288.384 202.268 288.378 203.052C288.378 205.488 286 207.388 286 207.388C286 207.388 290.935 203.728 290.132 205.214C289.328 206.699 286.165 208.096 286.165 208.096C286.165 208.096 291.853 206.948 289.832 207.758C287.811 208.568 285.885 209.122 285.885 209.122H284.316C284.316 209.122 278.941 206.425 280.962 206.827C282.045 207.008 283.092 207.363 284.061 207.879Z" fill="#D9B287"/>
<path d="M414.443 193.87C414.443 193.87 407.863 187.054 409.712 187.258C411.561 187.462 415.01 192.563 415.01 192.563C415.01 192.563 415.061 181.321 416.7 183.789C418.339 186.257 416.324 192.614 416.324 192.614C416.324 192.614 421.023 185.288 421.011 186.486C421.011 190.185 417.395 193.079 417.395 193.079C417.395 193.079 424.907 187.513 423.676 189.77C422.445 192.027 417.644 194.157 417.644 194.157C417.644 194.157 426.303 192.41 423.223 193.641C420.143 194.871 417.217 195.719 417.217 195.719H414.826C414.826 195.719 406.645 191.613 409.724 192.231C411.376 192.518 412.969 193.072 414.443 193.87Z" fill="#D9B287"/>
<path d="M22.3375 193.87C22.3375 193.87 15.757 187.054 17.5998 187.258C19.4426 187.462 22.905 192.563 22.905 192.563C22.905 192.563 22.956 181.321 24.5947 183.789C26.2335 186.257 24.2185 192.614 24.2185 192.614C24.2185 192.614 28.9116 185.288 28.9052 186.486C28.9052 190.185 25.2898 193.079 25.2898 193.079C25.2898 193.079 32.833 187.513 31.5578 189.77C30.2825 192.027 25.5193 194.157 25.5193 194.157C25.5193 194.157 34.1848 192.41 31.105 193.641C28.0252 194.871 25.0985 195.719 25.0985 195.719H22.7201C22.7201 195.719 14.5392 191.613 17.619 192.231C19.2702 192.518 20.8638 193.072 22.3375 193.87Z" fill="#D9B287"/>
<path d="M54.7983 184.248C54.7983 184.248 48.0648 172.63 49.9841 171.738C51.9034 170.845 55.8759 179.676 55.8759 179.676C55.8759 179.676 55.1043 163.027 56.8961 164.564C58.6879 166.101 60.3521 177.884 60.3521 177.884C60.3521 177.884 63.942 165.074 65.0961 167.765C66.2503 170.456 64.1716 178.605 64.1716 178.605C64.1716 178.605 69.3173 168.804 69.8338 172.005C70.3503 175.206 67.398 180.454 67.398 180.454C67.398 180.454 74.1825 173.67 74.699 176.36C75.2155 179.051 72.9072 181.736 72.9072 181.736C72.9072 181.736 81.8661 176.871 79.6917 179.561C77.5174 182.252 74.3164 185.708 74.3164 185.708C74.3164 185.708 82.8927 182.635 81.8661 184.433C80.8395 186.231 77.0009 188.144 77.0009 188.144C77.0009 188.144 84.0149 186.869 83.2753 188.016C82.5582 188.916 81.6962 189.69 80.7247 190.306H48.8427C48.8427 190.306 40.394 187.251 43.7416 186.996C45.926 186.899 48.1047 187.291 50.118 188.144C50.118 188.144 39.7436 181.13 44.6088 180.594C49.474 180.059 53.4465 186.225 53.4465 186.225C53.4465 186.225 46.5344 176.494 48.983 178.031L54.7983 184.248Z" fill="#D9B287"/>
<path d="M55.2315 187.551C55.2315 187.551 46.5341 178.541 48.9762 178.815C51.4184 179.089 55.9903 185.829 55.9903 185.829C55.9903 185.829 56.054 170.978 58.222 174.23C60.39 177.482 57.6991 185.88 57.6991 185.88C57.6991 185.88 63.9034 176.207 63.8906 177.788C63.846 182.679 59.1083 186.499 59.1083 186.499C59.1083 186.499 69.0428 179.147 67.3977 182.124C65.7525 185.102 59.4208 187.927 59.4208 187.927C59.4208 187.927 70.8983 185.619 66.8046 187.245C62.711 188.871 58.866 189.993 58.866 189.993H55.6778C55.6778 189.993 44.8379 184.567 48.938 185.383C51.1414 185.752 53.2682 186.484 55.2315 187.551Z" fill="#2B1812"/>
<path d="M58.9741 190.312H55.6584L55.5883 190.273C47.4647 186.199 47.6879 185.555 47.7772 185.287C47.9175 184.879 48.485 184.956 49.0525 185.07C50.668 185.383 52.2486 185.855 53.771 186.48C51.3224 183.859 47.7899 179.816 48.2873 178.828C48.3553 178.703 48.4632 178.604 48.5937 178.548C48.7243 178.491 48.8701 178.48 49.0078 178.515C51.061 178.745 54.3512 183.011 55.6712 184.847C55.7222 181.353 55.9964 173.918 57.4502 173.484C57.8073 173.376 58.1516 173.574 58.4832 174.065C60.0645 176.437 59.2228 181.27 58.566 184.005C63.106 177.081 63.6672 177.259 63.9286 177.329C64.0267 177.361 64.1104 177.427 64.1652 177.514C64.22 177.602 64.2423 177.705 64.2283 177.808C64.0943 180.183 63.2001 182.452 61.6777 184.28C64.4897 182.328 67.1614 180.734 67.7417 181.244C68.0988 181.557 67.8054 182.093 67.6907 182.297C66.6322 184.241 63.7182 186.078 61.6841 187.181C67.7991 186.027 67.9138 186.397 67.9967 186.671C68.1115 187.06 67.646 187.277 66.9319 187.564C62.902 189.177 59.006 190.305 58.9678 190.318L58.9741 190.312ZM55.8433 189.674H58.8849C59.3121 189.547 62.8191 188.507 66.5365 187.047C65.019 187.219 62.1878 187.685 59.5735 188.239L56.9146 188.775L57.3035 189.183L55.1164 187.819C53.2018 186.785 51.1325 186.068 48.9887 185.695L48.74 185.651C50.9984 187.144 53.352 188.488 55.7859 189.674H55.8433ZM48.8867 179.128C48.8867 179.944 52.2534 183.974 55.4926 187.328L56.8572 188.743L59.3567 187.634C59.4205 187.634 65.6247 184.828 67.1806 181.971C67.2256 181.896 67.264 181.817 67.2953 181.735C66.3644 181.889 62.5577 184.375 59.3503 186.754L58.9614 186.25C59.006 186.218 63.342 182.66 63.6098 178.152C62.6724 179.096 60.1793 182.679 58.0177 186.052L56.7424 188.08L57.4693 185.785C57.4693 185.702 60.0645 177.495 58.0049 174.403C57.8009 174.09 57.6925 174.077 57.6925 174.077C56.9974 174.205 56.3853 179.58 56.3598 185.823V186.849L55.7796 186.001C54.5043 184.159 50.8825 179.338 49.0014 179.128H48.8867Z" fill="#2B1812"/>
<path d="M341.576 204.678C341.576 204.678 328.823 182.73 332.477 181.034C336.13 179.338 343.616 196.019 343.616 196.019C343.616 196.019 342.162 164.558 345.529 167.459C348.896 170.36 352.065 192.633 352.065 192.633C352.065 192.633 358.843 168.402 361.024 173.504C363.204 178.605 359.302 193.991 359.302 193.991C359.302 193.991 369.032 175.468 370.002 181.519C370.971 187.57 365.404 197.492 365.404 197.492C365.404 197.492 378.234 184.662 379.203 189.744C380.172 194.826 375.811 199.915 375.811 199.915C375.811 199.915 392.753 190.714 388.64 195.795C384.527 200.877 378.476 207.42 378.476 207.42C378.476 207.42 394.691 201.604 392.753 204.997C390.814 208.389 383.558 212.011 383.558 212.011C383.558 212.011 396.872 209.588 395.418 211.768C393.964 213.949 390.585 216.085 390.585 216.085H330.302C330.302 216.085 314.323 210.315 320.616 209.83C326.91 209.345 332.732 212.011 332.732 212.011C332.732 212.011 313.131 198.697 322.325 197.728C331.52 196.758 339.025 208.376 339.025 208.376C339.025 208.376 325.953 189.98 330.557 192.888L341.576 204.678Z" fill="#D9B287"/>
<path d="M342.401 210.927C342.401 210.927 325.963 193.895 330.611 194.405C335.26 194.915 343.855 207.655 343.855 207.655C343.855 207.655 343.976 179.599 348.076 185.733C352.176 191.867 347.139 207.77 347.139 207.77C347.139 207.77 358.859 189.483 358.833 192.467C358.75 201.706 349.804 208.931 349.804 208.931C349.804 208.931 368.57 195.03 365.497 200.641C362.423 206.253 350.378 211.641 350.378 211.641C350.378 211.641 372.013 207.273 364.323 210.365C356.633 213.458 349.32 215.556 349.32 215.556H343.364C343.364 215.556 322.96 205.303 330.611 206.839C338.263 208.376 342.401 210.927 342.401 210.927Z" fill="#2B1812"/>
<path d="M349.373 215.856H343.278L343.208 215.824C336.302 212.355 328.159 207.968 328.586 206.731C328.733 206.304 329.32 206.24 330.671 206.508C334.167 207.176 337.571 208.259 340.81 209.735C337.042 205.749 328.567 196.452 329.517 194.527C329.632 194.285 329.919 194.017 330.595 194.093C334.657 194.54 341.435 203.773 343.494 206.648C343.552 201.407 343.941 185.389 346.683 184.573C347.225 184.407 347.773 184.739 348.321 185.555C351.599 190.484 349.24 201.228 348.022 205.781C351.95 199.724 357.548 191.479 358.766 191.842C358.906 191.887 359.136 192.021 359.129 192.48C359.078 198.219 355.616 203.243 352.963 206.247C357.701 202.88 364.753 198.187 365.914 199.194C366.36 199.583 366.035 200.317 365.754 200.833C363.459 205.035 356.47 208.988 352.804 210.844C365.99 208.293 366.194 209.027 366.303 209.32C366.424 209.728 365.99 210.041 364.466 210.653C356.815 213.701 349.501 215.83 349.431 215.849L349.373 215.856ZM343.424 215.218H349.284C349.922 215.04 356.936 212.967 364.218 210.053C364.594 209.908 364.962 209.745 365.321 209.562C363.465 209.562 356.617 210.71 350.445 211.954L347.601 212.527L350.253 211.348C350.375 211.297 362.19 205.998 365.181 200.508C365.557 199.826 365.474 199.647 365.474 199.647C364.639 199.067 356.77 204.111 349.954 209.212L349.565 208.708C349.654 208.638 358.364 201.496 358.492 192.544C357.216 193.322 351.911 200.903 347.384 207.962L346.109 209.99L346.836 207.694C346.887 207.535 351.784 191.881 347.811 185.931C347.607 185.619 347.206 185.109 346.893 185.205C344.98 185.778 344.215 199.29 344.177 207.675V208.708L343.603 207.853C343.514 207.726 335.001 195.235 330.582 194.744C330.467 194.744 330.2 194.712 330.149 194.827C329.511 196.159 337.073 204.927 342.672 210.723L344.464 212.578L342.27 211.214C342.232 211.214 338.119 208.663 330.589 207.152C330.172 207.047 329.743 206.999 329.313 207.012C329.97 208.058 336.869 211.922 343.424 215.218Z" fill="#2B1812"/>
<path d="M76.7319 184.905C76.7319 184.905 78.0071 183.725 79.1485 183.725C80.2899 183.725 83.6758 185.364 83.6758 185.364C83.6758 185.364 85.0403 187.468 85.1615 187.596C85.2826 187.723 86.9596 188.437 87.0744 188.731C87.1892 189.024 87.4442 190.006 87.4442 190.006H77.0379L75.125 184.956L76.7319 184.905Z" fill="white"/>
<path d="M87.8735 190.312H76.8296L74.668 184.637L76.6128 184.586C76.9443 184.312 78.0985 183.406 79.1633 183.406C80.3175 183.406 83.4738 184.911 83.8309 185.077L83.9074 185.115L83.9584 185.192C84.596 186.167 85.3166 187.264 85.4122 187.379L85.8713 187.608C86.9043 188.118 87.2869 188.348 87.3953 188.603C87.5037 188.858 87.7587 189.808 87.7842 189.91L87.8735 190.312ZM77.2632 189.674H87.0318C86.9635 189.396 86.8805 189.121 86.7831 188.852C86.393 188.599 85.9861 188.373 85.5652 188.176C85.3378 188.086 85.1234 187.965 84.9276 187.819C84.8001 187.691 83.9648 186.416 83.4483 185.612C82.4536 185.141 79.9731 184.044 79.1378 184.044C78.1559 184.044 76.9443 185.128 76.9316 185.141L76.8423 185.217L75.567 185.255L77.2632 189.674Z" fill="#2B1812"/>
<path d="M79.1497 183.725L79.0859 184.72C79.0859 184.72 81.7513 186.269 81.6939 186.83C81.5397 187.467 81.3262 188.089 81.0563 188.686L82.4208 190.114H75.1836L75.7383 185.836C75.7383 185.836 77.2878 183.604 79.1497 183.725Z" fill="#2B1812"/>
<path d="M63.1509 184.286C63.1509 184.286 68.3604 176.469 69.5273 176.348C70.4325 176.372 71.3192 176.61 72.1156 177.041C72.9121 177.472 73.5959 178.084 74.1119 178.828C74.8846 180.421 75.5079 182.081 75.9738 183.789C76.0376 183.974 76.2863 184.101 77.7082 186.39C79.1301 188.68 79.0727 189.993 79.0727 189.993H58.9297C59.1686 188.867 59.5658 187.781 60.1093 186.767C60.7374 185.972 61.6087 185.405 62.5897 185.153L63.1509 184.286Z" fill="white"/>
<path d="M79.3782 190.312H58.5273L58.6039 189.923C58.852 188.761 59.2642 187.64 59.8281 186.595C60.4651 185.756 61.3621 185.153 62.3787 184.879L62.876 184.108C64.1513 182.246 68.2641 176.163 69.4947 176.029C70.4628 176.049 71.4122 176.298 72.2648 176.757C73.1174 177.216 73.8486 177.872 74.3982 178.669C75.1786 180.22 75.7941 181.848 76.2346 183.527L76.2792 183.687L76.4004 183.846C76.6044 184.12 77.038 184.694 77.9881 186.225C79.4483 188.578 79.4037 189.948 79.3973 190.006L79.3782 190.312ZM59.3244 189.674H78.7405C78.5308 188.561 78.0969 187.503 77.4652 186.563C76.986 185.761 76.4667 184.984 75.9094 184.235C75.8192 184.134 75.7479 184.017 75.699 183.891C75.6754 183.831 75.6563 183.769 75.6416 183.706C75.2266 182.072 74.6299 180.489 73.8626 178.987C73.3787 178.295 72.7401 177.724 71.9974 177.322C71.2548 176.919 70.4285 176.694 69.584 176.666C68.9464 176.762 65.9303 180.703 63.4308 184.458L62.7932 185.434L62.6656 185.466C61.7644 185.695 60.9614 186.209 60.3765 186.932C59.9055 187.794 59.5557 188.717 59.3371 189.674H59.3244Z" fill="#2B1812"/>
<path d="M71.1469 189.866C71.1469 189.866 70.5921 188.501 70.5092 188.316C70.4263 188.131 70.4455 186.333 70.2605 185.587C69.7766 184.522 69.1961 183.504 68.5262 182.545L69.642 179.325L69.0809 178.892L70.0119 176.596L69.4954 176.354C68.2711 176.571 63.119 184.286 63.119 184.286L62.5579 185.153C61.5768 185.405 60.7055 185.972 60.0774 186.767C59.5479 187.739 59.1613 188.783 58.9297 189.866H71.1469Z" fill="#2B1812"/>
<path d="M277.584 186.85C278.006 186.459 278.534 186.201 279.102 186.11C279.803 186.11 281.939 187.136 281.939 187.136C281.939 187.136 282.794 188.456 282.87 188.533C282.947 188.609 283.999 189.062 284.075 189.247C284.152 189.432 284.311 190.038 284.311 190.038H277.775L276.57 186.85H277.584Z" fill="white"/>
<path d="M284.7 190.357H277.558L276.117 186.569L277.463 186.531C277.92 186.121 278.492 185.863 279.101 185.791C279.854 185.791 281.85 186.741 282.079 186.85L282.156 186.888L282.207 186.964C282.596 187.57 283.042 188.24 283.112 188.322C283.182 188.405 283.227 188.367 283.361 188.437C284.043 188.782 284.285 188.928 284.368 189.119C284.467 189.393 284.55 189.672 284.617 189.955L284.7 190.357ZM277.979 189.719H283.877C283.833 189.566 283.788 189.432 283.762 189.368C283.737 189.304 283.252 189.107 283.055 189.005C282.9 188.945 282.756 188.861 282.627 188.756C282.288 188.321 281.979 187.863 281.703 187.385C280.873 186.957 279.992 186.636 279.082 186.429C278.594 186.51 278.14 186.731 277.775 187.066L277.692 187.143H277.01L277.979 189.719Z" fill="#2B1812"/>
<path d="M279.103 186.11L279.064 186.747C279.064 186.747 280.735 187.723 280.697 188.074C280.604 188.474 280.474 188.865 280.308 189.24L281.162 190.133H276.609L276.96 187.449C276.96 187.449 277.936 186.033 279.103 186.11Z" fill="#2B1812"/>
<path d="M269.062 186.454C269.062 186.454 272.333 181.551 273.072 181.474C273.64 181.492 274.195 181.642 274.694 181.912C275.194 182.182 275.623 182.565 275.948 183.03C276.431 184.029 276.822 185.071 277.115 186.142C277.153 186.256 277.306 186.339 278.205 187.774C278.692 188.434 278.988 189.215 279.06 190.031H266.422C266.57 189.325 266.819 188.645 267.162 188.01C267.555 187.511 268.102 187.155 268.717 186.996L269.062 186.454Z" fill="white"/>
<path d="M279.364 190.357H266.031L266.114 189.968C266.271 189.226 266.533 188.511 266.892 187.844C267.299 187.306 267.869 186.914 268.518 186.728L268.805 186.282C270.08 184.407 272.267 181.245 273.039 181.181C273.669 181.188 274.287 181.348 274.842 181.645C275.397 181.943 275.872 182.37 276.227 182.89C276.726 183.871 277.118 184.904 277.394 185.97V186.059C277.394 186.059 277.394 186.059 277.451 186.129C277.579 186.301 277.853 186.658 278.452 187.627C278.975 188.34 279.288 189.183 279.358 190.063L279.364 190.357ZM266.835 189.719H278.708C278.556 189.087 278.295 188.487 277.936 187.946C277.349 187.009 277.088 186.671 276.967 186.499C276.903 186.425 276.851 186.341 276.814 186.25L276.782 186.135C276.521 185.118 276.149 184.132 275.672 183.196C275.382 182.784 275.002 182.443 274.559 182.201C274.117 181.959 273.625 181.822 273.122 181.799C272.695 181.94 270.826 184.42 269.347 186.633L268.933 187.27L268.811 187.302C268.274 187.436 267.796 187.74 267.447 188.169C267.176 188.656 266.975 189.177 266.847 189.719H266.835Z" fill="#2B1812"/>
<path d="M274.08 189.961C274.08 189.961 273.73 189.101 273.691 188.986C273.653 188.871 273.653 187.71 273.538 187.277C273.232 186.608 272.867 185.968 272.448 185.364L273.149 183.343L272.799 183.068L273.379 181.634L273.054 181.481C272.289 181.615 269.062 186.454 269.062 186.454L268.718 186.996C268.102 187.155 267.556 187.511 267.162 188.01C266.828 188.62 266.585 189.275 266.441 189.955L274.08 189.961Z" fill="#2B1812"/>
<path d="M383.036 205.921C383.036 205.921 385.497 203.696 387.608 203.696C389.719 203.696 396.165 206.795 396.165 206.795C396.165 206.795 398.748 210.767 398.977 211.01C399.207 211.252 402.376 212.597 402.612 213.152C402.848 213.707 403.313 215.537 403.313 215.537H383.623L379.988 206.004L383.036 205.921Z" fill="white"/>
<path d="M403.726 215.856H383.404L379.527 205.692L382.894 205.583C383.372 205.169 385.591 203.352 387.587 203.352C389.749 203.352 396.017 206.355 396.285 206.482L396.361 206.521L396.412 206.597C397.388 208.102 399.007 210.557 399.186 210.761C399.262 210.818 399.734 211.054 400.149 211.265C401.902 212.138 402.699 212.597 402.884 213.005C403.126 213.573 403.586 215.358 403.605 215.435L403.726 215.856ZM383.844 215.218H402.903C402.75 214.651 402.476 213.649 402.317 213.305C402.157 212.961 400.621 212.253 399.881 211.883C399.482 211.713 399.104 211.499 398.752 211.246C398.516 211.01 396.61 208.057 395.947 207.056C395.201 206.706 389.5 204.027 387.606 204.027C385.712 204.027 383.27 206.151 383.251 206.17L383.162 206.253L380.446 206.323L383.844 215.218Z" fill="#2B1812"/>
<path d="M387.61 203.671L387.495 205.545C387.495 205.545 392.533 208.478 392.418 209.53C392.137 210.738 391.744 211.916 391.245 213.05L393.795 215.747H380.086L381.138 207.656C381.138 207.656 384.097 203.467 387.61 203.671Z" fill="#2B1812"/>
<path d="M357.391 204.754C357.391 204.754 367.242 189.987 369.467 189.751C371.693 189.515 376.379 191.389 378.139 194.437C379.899 197.485 381.538 203.466 381.659 203.817C381.78 204.168 382.246 204.404 384.937 208.74C387.627 213.076 387.519 215.537 387.519 215.537H349.395C349.395 215.537 350.217 211.666 351.626 209.441C353.035 207.216 356.313 206.393 356.313 206.393L357.391 204.754Z" fill="white"/>
<path d="M387.795 215.856H349.008L349.091 215.473C349.091 215.308 349.939 211.52 351.354 209.269C352.674 207.184 355.48 206.298 356.111 206.119L357.106 204.576C358.12 203.052 367.098 189.674 369.412 189.432C371.727 189.19 376.567 191.109 378.39 194.278C379.442 196.095 380.603 199.163 381.846 203.403C381.891 203.569 381.923 203.677 381.936 203.715C382.008 203.852 382.096 203.981 382.197 204.098C382.586 204.614 383.389 205.679 385.188 208.561C387.904 212.936 387.815 215.441 387.815 215.544L387.795 215.856ZM349.799 215.218H387.164C387.094 214.447 386.711 212.234 384.614 208.906C383.702 207.384 382.715 205.909 381.655 204.487C381.507 204.315 381.387 204.121 381.298 203.913L381.202 203.581C379.972 199.392 378.83 196.37 377.81 194.597C376.133 191.689 371.574 189.834 369.444 190.063C367.933 190.223 361.378 199.265 357.603 204.927L356.481 206.674L356.36 206.706C356.36 206.706 353.172 207.522 351.896 209.613C350.94 211.375 350.234 213.262 349.799 215.218Z" fill="#2B1812"/>
<path d="M372.491 215.301C372.491 215.301 371.433 212.751 371.318 212.374C371.203 211.998 371.203 208.619 370.846 207.216C370.489 205.813 367.568 201.477 367.568 201.477L369.679 195.381L368.621 194.559L370.38 190.223L369.399 189.77C367.09 190.184 357.366 204.761 357.366 204.761L356.314 206.4C356.314 206.4 353.03 207.222 351.627 209.448C350.422 211.361 349.651 214.447 349.453 215.307L372.491 215.301Z" fill="#2B1812"/>
</g>
<defs>
<clipPath id="clip0_27255_5423">
<rect width="442" height="220" fill="white"/>
</clipPath>
</defs>
</svg>
