<svg width="16" height="16" viewBox="0 0 16 16" fill="none" xmlns="http://www.w3.org/2000/svg">
<g clip-path="url(#clip0_26911_4653)">
<path d="M4.83599 12.3295L5.31866 12.6115C6.13262 13.0862 7.05839 13.3354 8.00066 13.3335C9.05549 13.3335 10.0866 13.0207 10.9637 12.4347C11.8408 11.8486 12.5244 11.0157 12.928 10.0411C13.3317 9.0666 13.4373 7.99425 13.2315 6.95968C13.0257 5.92512 12.5178 4.97481 11.7719 4.22893C11.026 3.48305 10.0757 2.9751 9.04114 2.76931C8.00658 2.56352 6.93422 2.66914 5.95968 3.07281C4.98514 3.47647 4.15219 4.16006 3.56616 5.03712C2.98012 5.91418 2.66733 6.94533 2.66733 8.00016C2.66733 8.9575 2.91866 9.8755 3.38999 10.6828L3.67133 11.1655L3.23599 12.7662L4.83599 12.3295ZM1.33666 14.6668L2.23799 11.3548C1.64409 10.3367 1.33206 9.17882 1.33399 8.00016C1.33399 4.31816 4.31866 1.3335 8.00066 1.3335C11.6827 1.3335 14.6673 4.31816 14.6673 8.00016C14.6673 11.6822 11.6827 14.6668 8.00066 14.6668C6.82251 14.6687 5.6651 14.3569 4.64733 13.7635L1.33666 14.6668ZM5.59466 4.87216C5.68399 4.8655 5.77399 4.8655 5.86333 4.8695C5.89933 4.87216 5.93533 4.87616 5.97133 4.88016C6.07733 4.89216 6.19399 4.95683 6.23333 5.04616C6.43199 5.49683 6.62533 5.95083 6.81199 6.40616C6.85333 6.5075 6.82866 6.6375 6.74999 6.76416C6.69589 6.84982 6.63737 6.93259 6.57466 7.01216C6.49933 7.10883 6.33733 7.28616 6.33733 7.28616C6.33733 7.28616 6.27133 7.36483 6.29666 7.46283C6.30599 7.50016 6.33666 7.55416 6.36466 7.5995L6.40399 7.66283C6.57466 7.9475 6.80399 8.23616 7.08399 8.50816C7.16399 8.5855 7.24199 8.66483 7.32599 8.73883C7.63799 9.01416 7.99133 9.23883 8.37266 9.4055L8.37599 9.40683C8.43266 9.4315 8.46133 9.44483 8.54399 9.48016C8.58533 9.4975 8.62799 9.51283 8.67133 9.52416C8.71611 9.53557 8.76327 9.53342 8.80682 9.51799C8.85038 9.50256 8.88838 9.47455 8.91599 9.4375C9.39866 8.85283 9.44266 8.81483 9.44666 8.81483V8.81616C9.48019 8.78489 9.52003 8.76115 9.56349 8.74655C9.60696 8.73194 9.65305 8.72681 9.69866 8.7315C9.73866 8.73416 9.77933 8.7415 9.81666 8.75816C10.1707 8.92016 10.75 9.17283 10.75 9.17283L11.138 9.34683C11.2033 9.37816 11.2627 9.45216 11.2647 9.5235C11.2673 9.56816 11.2713 9.64016 11.256 9.77216C11.2347 9.94483 11.1827 10.1522 11.1307 10.2608C11.095 10.335 11.0478 10.403 10.9907 10.4622C10.9234 10.5328 10.8497 10.5971 10.7707 10.6542C10.7433 10.6747 10.7155 10.6947 10.6873 10.7142C10.6044 10.7668 10.5192 10.8157 10.432 10.8608C10.2603 10.952 10.0708 11.0043 9.87666 11.0142C9.75333 11.0208 9.62999 11.0302 9.50599 11.0235C9.50066 11.0235 9.12733 10.9655 9.12733 10.9655C8.1795 10.7162 7.30292 10.2491 6.56733 9.6015C6.41666 9.46883 6.27733 9.32616 6.13466 9.18416C5.54133 8.59416 5.09333 7.9575 4.82133 7.35616C4.68211 7.06102 4.6069 6.73977 4.60066 6.4135C4.59791 6.00873 4.73022 5.61461 4.97666 5.2935C5.02533 5.23083 5.07133 5.1655 5.15066 5.09016C5.23533 5.01016 5.28866 4.9675 5.34666 4.93816C5.42378 4.89952 5.5079 4.87684 5.59399 4.8715L5.59466 4.87216Z" fill="#1CDB7C"/>
</g>
<defs>
<clipPath id="clip0_26911_4653">
<rect width="16" height="16" fill="white"/>
</clipPath>
</defs>
</svg>
