<svg width="21" height="22" viewBox="0 0 21 22" fill="none" xmlns="http://www.w3.org/2000/svg">
<path fill-rule="evenodd" clip-rule="evenodd" d="M9.10839 3.86682C9.96354 3.01167 11.1234 2.53125 12.3327 2.53125H14.6778C15.0376 2.53125 15.3292 2.8229 15.3292 3.18266V6.30946C15.3292 6.66922 15.0376 6.96087 14.6778 6.96087H12.3327C12.2982 6.96087 12.265 6.9746 12.2406 6.99903C12.2162 7.02346 12.2024 7.0566 12.2024 7.09115V8.78483H14.6778C14.8784 8.78483 15.0678 8.87725 15.1913 9.03536C15.3147 9.19347 15.3584 9.39964 15.3098 9.59424L14.5281 12.721C14.4556 13.011 14.195 13.2145 13.8961 13.2145H12.2024V18.8166C12.2024 19.1764 11.9108 19.468 11.551 19.468H8.42424C8.06448 19.468 7.77283 19.1764 7.77283 18.8166V13.2145H6.07915C5.71938 13.2145 5.42773 12.9228 5.42773 12.563V9.43625C5.42773 9.07648 5.71938 8.78483 6.07915 8.78483H7.77283V7.09115C7.77283 5.88179 8.25325 4.72196 9.10839 3.86682ZM12.3327 3.83408C11.4689 3.83408 10.6405 4.17723 10.0296 4.78806C9.41881 5.39888 9.07566 6.22732 9.07566 7.09115V9.43625C9.07566 9.79602 8.78401 10.0877 8.42424 10.0877H6.73056V11.9116H8.42424C8.78401 11.9116 9.07566 12.2033 9.07566 12.563V18.1652H10.8996V12.563C10.8996 12.2033 11.1913 11.9116 11.551 11.9116H13.3875L13.8435 10.0877H11.551C11.1913 10.0877 10.8996 9.79602 10.8996 9.43625V7.09115C10.8996 6.71107 11.0506 6.34655 11.3194 6.07779C11.5881 5.80903 11.9526 5.65804 12.3327 5.65804H14.0264V3.83408H12.3327Z" fill="#CC452D"/>
</svg>
