<svg width="41" height="40" viewBox="0 0 41 40" fill="none" xmlns="http://www.w3.org/2000/svg">
<g clip-path="url(#clip0_26911_4736)">
<path d="M13.1459 9.06524L30.6593 19.2819C30.7848 19.3554 30.8889 19.4604 30.9612 19.5866C31.0335 19.7127 31.0716 19.8556 31.0716 20.0011C31.0716 20.1465 31.0335 20.2894 30.9612 20.4156C30.8889 20.5417 30.7848 20.6468 30.6593 20.7202L13.1459 30.9369C13.019 31.011 12.8748 31.0501 12.7279 31.0505C12.581 31.0508 12.4366 31.0124 12.3094 30.9389C12.1821 30.8655 12.0766 30.7597 12.0034 30.6323C11.9302 30.505 11.892 30.3605 11.8926 30.2136V9.78524C11.8925 9.63861 11.9312 9.49457 12.0046 9.36765C12.0781 9.24074 12.1837 9.13544 12.3108 9.06241C12.438 8.98937 12.5821 8.95117 12.7287 8.95166C12.8754 8.95216 13.0193 8.99134 13.1459 9.06524Z" fill="#CC452D"/>
</g>
<defs>
<clipPath id="clip0_26911_4736">
<rect width="40" height="40" fill="white" transform="translate(0.226562)"/>
</clipPath>
</defs>
</svg>
