<svg width="374" height="71" viewBox="0 0 374 71" fill="none" xmlns="http://www.w3.org/2000/svg">
<path d="M60.1084 0C62.9163 0 65.6336 0.397702 68.2578 1.19434C70.905 1.99794 73.2916 3.34583 75.4141 5.23242L75.793 5.56934L75.4502 5.94336L67.6709 14.4502L67.3066 13.9893C66.501 12.9716 65.3908 12.2178 63.9521 11.7383L63.9346 11.7324C62.509 11.1979 61.1657 10.9355 59.9014 10.9355C59.1589 10.9356 58.39 11.0235 57.5947 11.2002C56.8145 11.3736 56.0787 11.6551 55.3857 12.0449L55.3643 12.0566C54.6983 12.3897 54.1646 12.843 53.7539 13.418C53.364 13.9639 53.1563 14.6396 53.1562 15.4727C53.1562 16.7992 53.643 17.7673 54.6016 18.4463C55.6546 19.1922 56.9858 19.8386 58.6055 20.3789C60.3012 20.9289 62.114 21.4797 64.041 22.0303C66.0124 22.5935 67.8459 23.3923 69.54 24.4268C71.3097 25.479 72.7693 26.8914 73.9141 28.6562C75.0878 30.4658 75.6504 32.848 75.6504 35.7588C75.6504 38.5351 75.133 40.9839 74.0801 43.0898C73.035 45.1799 71.6063 46.9192 69.7959 48.3008C68.0384 49.6771 65.9781 50.6924 63.624 51.3516L63.623 51.3506C61.322 52.0076 58.8849 52.3359 56.3135 52.3359C53.0882 52.3359 50.0865 51.8454 47.3135 50.8584C44.5297 49.8675 41.9428 48.2651 39.5527 46.0625L39.1875 45.7256L47.5879 36.4932L47.9502 36.9766C49.004 38.3817 50.319 39.4795 51.8994 40.2725L52.207 40.4092C53.7485 41.071 55.3232 41.4004 56.9346 41.4004C57.7692 41.4004 58.6046 41.3121 59.4414 41.1367C60.319 40.9168 61.0745 40.613 61.7139 40.2295L61.7266 40.2217C62.3988 39.8435 62.9109 39.3692 63.2764 38.8008L63.2822 38.79L63.29 38.7803C63.6831 38.2299 63.8867 37.575 63.8867 36.7939C63.8867 35.4754 63.3828 34.4798 62.3691 33.75L62.3516 33.7363C61.3013 32.9049 59.9507 32.1919 58.2871 31.6074C56.593 31.0122 54.76 30.4165 52.7881 29.8203C50.773 29.2111 48.8955 28.39 47.1572 27.3564C45.3926 26.3072 43.9136 24.9236 42.7236 23.21L42.7188 23.2021C41.5434 21.4392 40.9785 19.1478 40.9785 16.3701C40.9785 13.6831 41.4977 11.3023 42.5518 9.24219L42.5557 9.23438L42.7637 8.85645C43.8243 6.98501 45.1793 5.40074 46.8281 4.1084L46.833 4.10449L47.1738 3.85059C48.8898 2.60592 50.8312 1.67539 52.9932 1.05664C55.2952 0.351926 57.6676 1.94463e-05 60.1084 0ZM106.905 0C108.318 2.64325e-05 109.774 0.141962 111.272 0.422852C112.819 0.658337 114.32 1.05668 115.774 1.61914L116.338 1.83984C117.645 2.377 118.896 3.05909 120.092 3.88379C121.468 4.83326 122.701 5.99449 123.788 7.36523L124.094 7.75195L115.046 15.1406L114.729 14.7549C113.723 13.5292 112.475 12.5879 110.981 11.9287L110.976 11.9258C109.535 11.2711 107.837 10.9356 105.87 10.9355C103.914 10.9355 102.099 11.3121 100.42 12.0625C98.7815 12.8153 97.3412 13.8782 96.0977 15.2549C94.9014 16.5841 93.9441 18.1865 93.2275 20.0674C92.561 21.9376 92.2246 23.9696 92.2246 26.168C92.2246 28.412 92.5603 30.4658 93.2256 32.334C93.9411 34.1674 94.8995 35.7712 96.0986 37.1494L96.3252 37.3955C97.4716 38.6096 98.7917 39.5682 100.287 40.2744C101.92 41.024 103.664 41.4003 105.524 41.4004C107.661 41.4004 109.533 40.9553 111.152 40.0801C112.78 39.2001 114.123 37.9688 115.183 36.3789L115.476 35.9404L125.261 43.2412L124.976 43.6396C122.855 46.6091 120.162 48.8074 116.902 50.2246C113.668 51.631 110.334 52.3359 106.905 52.3359C103.034 52.3359 99.4554 51.7296 96.1738 50.5107C92.8954 49.293 90.0541 47.5566 87.6562 45.2998L87.6523 45.2969C85.2544 42.9929 83.3764 40.2204 82.0176 36.9873L82.0156 36.9824C80.7002 33.7409 80.0469 30.1334 80.0469 26.168C80.0469 22.2026 80.7002 18.5951 82.0156 15.3535L82.0176 15.3486C83.3768 12.1147 85.2559 9.36363 87.6562 7.10449C90.0536 4.80224 92.895 3.04303 96.1738 1.8252C99.4554 0.606342 103.034 0 106.905 0ZM34.1895 12.1777H11.7637V20.2861H32.9473V31.2227H11.7637V40.1582H35.4307V51.0938H0V1.24219H34.1895V12.1777Z" fill="#2E1710"/>
<path d="M368.472 31.7852C367.136 29.9152 365.343 28.9802 363.091 28.9802C362.175 28.9802 361.279 29.2092 360.401 29.6672C359.523 30.1251 359.084 30.8693 359.084 31.8996C359.084 32.7392 359.447 33.3498 360.172 33.7314C360.897 34.113 361.813 34.4374 362.92 34.7045C364.026 34.9717 365.209 35.2579 366.469 35.5632C367.766 35.8303 368.968 36.2692 370.075 36.8798C371.182 37.4522 372.097 38.2536 372.823 39.284C373.548 40.3143 373.91 41.7263 373.91 43.5199C373.91 45.1609 373.548 46.5538 372.823 47.6987C372.136 48.8054 371.22 49.7022 370.075 50.3891C368.968 51.076 367.709 51.5721 366.297 51.8774C364.885 52.1827 363.473 52.3354 362.061 52.3354C359.924 52.3354 357.958 52.0301 356.165 51.4195C354.371 50.8089 352.768 49.7022 351.356 48.0994L355.936 43.8062C356.814 44.7984 357.749 45.6189 358.741 46.2676C359.771 46.8782 361.011 47.1835 362.462 47.1835C362.958 47.1835 363.473 47.1263 364.007 47.0118C364.541 46.8973 365.038 46.7065 365.495 46.4393C365.953 46.1722 366.316 45.8478 366.583 45.4662C366.888 45.0464 367.041 44.5694 367.041 44.0351C367.041 43.0811 366.678 42.3751 365.953 41.9172C365.228 41.4592 364.312 41.0967 363.206 40.8295C362.099 40.5242 360.897 40.2571 359.599 40.0281C358.34 39.761 357.157 39.3603 356.05 38.826C354.944 38.2536 354.028 37.4713 353.303 36.4791C352.578 35.4869 352.215 34.113 352.215 32.3576C352.215 30.8311 352.52 29.5145 353.131 28.4078C353.78 27.263 354.619 26.328 355.65 25.6029C356.68 24.8778 357.863 24.3436 359.199 24.0001C360.534 23.6567 361.889 23.4849 363.263 23.4849C365.095 23.4849 366.907 23.8093 368.701 24.4581C370.495 25.0686 371.945 26.1372 373.052 27.6637L368.472 31.7852Z" fill="#2E1710"/>
<path d="M320.948 24.1718H327.474V28.5795H327.588C328.237 27.2057 329.229 26.0227 330.565 25.0305C331.901 24.0001 333.713 23.4849 336.003 23.4849C337.835 23.4849 339.38 23.7902 340.64 24.4008C341.937 25.0114 342.987 25.8128 343.788 26.805C344.59 27.7972 345.162 28.9421 345.505 30.2396C345.849 31.5371 346.021 32.8918 346.021 34.3038V51.6484H339.152V37.7384C339.152 36.9752 339.113 36.1356 339.037 35.2197C338.961 34.2657 338.751 33.388 338.407 32.5865C338.102 31.747 337.606 31.0601 336.919 30.5258C336.232 29.9534 335.297 29.6672 334.114 29.6672C332.969 29.6672 331.996 29.858 331.195 30.2396C330.431 30.6212 329.783 31.1364 329.248 31.7852C328.752 32.4339 328.39 33.1781 328.161 34.0176C327.932 34.8572 327.817 35.7349 327.817 36.6508V51.6484H320.948V24.1718Z" fill="#2E1710"/>
<path d="M284.636 37.9101C284.636 35.7349 285.017 33.7696 285.781 32.0141C286.582 30.2205 287.651 28.694 288.986 27.4347C290.322 26.1753 291.906 25.2022 293.737 24.5153C295.569 23.8284 297.515 23.4849 299.576 23.4849C301.637 23.4849 303.583 23.8284 305.415 24.5153C307.247 25.2022 308.83 26.1753 310.166 27.4347C311.502 28.694 312.551 30.2205 313.314 32.0141C314.116 33.7696 314.517 35.7349 314.517 37.9101C314.517 40.0854 314.116 42.0698 313.314 43.8634C312.551 45.6189 311.502 47.1263 310.166 48.3856C308.83 49.6449 307.247 50.6181 305.415 51.305C303.583 51.9919 301.637 52.3354 299.576 52.3354C297.515 52.3354 295.569 51.9919 293.737 51.305C291.906 50.6181 290.322 49.6449 288.986 48.3856C287.651 47.1263 286.582 45.6189 285.781 43.8634C285.017 42.0698 284.636 40.0854 284.636 37.9101ZM291.505 37.9101C291.505 38.9787 291.677 40.0091 292.02 41.0013C292.402 41.9935 292.936 42.8712 293.623 43.6344C294.348 44.3977 295.207 45.0083 296.199 45.4662C297.191 45.9242 298.317 46.1531 299.576 46.1531C300.835 46.1531 301.961 45.9242 302.953 45.4662C303.946 45.0083 304.785 44.3977 305.472 43.6344C306.197 42.8712 306.732 41.9935 307.075 41.0013C307.457 40.0091 307.647 38.9787 307.647 37.9101C307.647 36.8416 307.457 35.8112 307.075 34.819C306.732 33.8268 306.197 32.9491 305.472 32.1859C304.785 31.4226 303.946 30.812 302.953 30.3541C301.961 29.8961 300.835 29.6672 299.576 29.6672C298.317 29.6672 297.191 29.8961 296.199 30.3541C295.207 30.812 294.348 31.4226 293.623 32.1859C292.936 32.9491 292.402 33.8268 292.02 34.819C291.677 35.8112 291.505 36.8416 291.505 37.9101Z" fill="#2E1710"/>
<path d="M271.253 24.1714H278.123V51.648H271.253V24.1714ZM270.28 14.8408C270.28 13.7341 270.681 12.78 271.482 11.9786C272.322 11.1391 273.371 10.7193 274.631 10.7193C275.89 10.7193 276.94 11.12 277.779 11.9214C278.657 12.6846 279.096 13.6578 279.096 14.8408C279.096 16.0238 278.657 17.016 277.779 17.8174C276.94 18.5807 275.89 18.9623 274.631 18.9623C273.371 18.9623 272.322 18.5616 271.482 17.7602C270.681 16.9206 270.28 15.9475 270.28 14.8408Z" fill="#2E1710"/>
<path d="M245.63 30.0109V24.1722H251.297V16.2154H258.166V24.1722H265.722V30.0109H258.166V42.032C258.166 43.4058 258.414 44.4934 258.91 45.2948C259.445 46.0962 260.475 46.4969 262.001 46.4969C262.612 46.4969 263.28 46.4397 264.005 46.3252C264.73 46.1725 265.302 45.9436 265.722 45.6383V51.4198C264.997 51.7633 264.1 51.9922 263.032 52.1067C262.001 52.2594 261.085 52.3357 260.284 52.3357C258.452 52.3357 256.945 52.1258 255.762 51.706C254.617 51.3244 253.701 50.7329 253.014 49.9315C252.365 49.0919 251.908 48.0615 251.64 46.8404C251.411 45.6192 251.297 44.2072 251.297 42.6044V30.0109H245.63Z" fill="#2E1710"/>
<path d="M241.036 51.649H234.511V47.2413H234.396C233.747 48.6152 232.755 49.8173 231.419 50.8476C230.084 51.8398 228.271 52.3359 225.981 52.3359C224.15 52.3359 222.585 52.0497 221.287 51.4773C220.028 50.8667 218.998 50.0653 218.196 49.0731C217.395 48.0427 216.823 46.8788 216.479 45.5813C216.136 44.2838 215.964 42.929 215.964 41.517V24.1724H222.833V38.0825C222.833 38.8457 222.871 39.7043 222.948 40.6584C223.024 41.5743 223.215 42.452 223.52 43.2916C223.863 44.093 224.36 44.7799 225.008 45.3523C225.695 45.8866 226.649 46.1537 227.87 46.1537C229.015 46.1537 229.969 45.9629 230.733 45.5813C231.534 45.1997 232.183 44.6845 232.679 44.0357C233.213 43.387 233.595 42.6428 233.824 41.8032C234.053 40.9637 234.167 40.086 234.167 39.1701V24.1724H241.036V51.649Z" fill="#2E1710"/>
<path d="M201.21 8.37164H208.079V51.6473H201.21V8.37164Z" fill="#2E1710"/>
<path d="M164.782 37.9101C164.782 35.7349 165.164 33.7696 165.927 32.0141C166.728 30.2205 167.797 28.694 169.133 27.4347C170.468 26.1753 172.052 25.2022 173.884 24.5153C175.716 23.8284 177.662 23.4849 179.723 23.4849C181.783 23.4849 183.73 23.8284 185.561 24.5153C187.393 25.2022 188.977 26.1753 190.313 27.4347C191.648 28.694 192.698 30.2205 193.461 32.0141C194.262 33.7696 194.663 35.7349 194.663 37.9101C194.663 40.0854 194.262 42.0698 193.461 43.8634C192.698 45.6189 191.648 47.1263 190.313 48.3856C188.977 49.6449 187.393 50.6181 185.561 51.305C183.73 51.9919 181.783 52.3354 179.723 52.3354C177.662 52.3354 175.716 51.9919 173.884 51.305C172.052 50.6181 170.468 49.6449 169.133 48.3856C167.797 47.1263 166.728 45.6189 165.927 43.8634C165.164 42.0698 164.782 40.0854 164.782 37.9101ZM171.651 37.9101C171.651 38.9787 171.823 40.0091 172.167 41.0013C172.548 41.9935 173.082 42.8712 173.769 43.6344C174.494 44.3977 175.353 45.0083 176.345 45.4662C177.338 45.9242 178.463 46.1531 179.723 46.1531C180.982 46.1531 182.108 45.9242 183.1 45.4662C184.092 45.0083 184.932 44.3977 185.619 43.6344C186.344 42.8712 186.878 41.9935 187.221 41.0013C187.603 40.0091 187.794 38.9787 187.794 37.9101C187.794 36.8416 187.603 35.8112 187.221 34.819C186.878 33.8268 186.344 32.9491 185.619 32.1859C184.932 31.4226 184.092 30.812 183.1 30.3541C182.108 29.8961 180.982 29.6672 179.723 29.6672C178.463 29.6672 177.338 29.8961 176.345 30.3541C175.353 30.812 174.494 31.4226 173.769 32.1859C173.082 32.9491 172.548 33.8268 172.167 34.819C171.823 35.8112 171.651 36.8416 171.651 37.9101Z" fill="#2E1710"/>
<path d="M155.376 31.7852C154.041 29.9152 152.247 28.9802 149.996 28.9802C149.08 28.9802 148.183 29.2092 147.305 29.6672C146.427 30.1251 145.989 30.8693 145.989 31.8996C145.989 32.7392 146.351 33.3498 147.076 33.7314C147.801 34.113 148.717 34.4374 149.824 34.7045C150.931 34.9717 152.114 35.2579 153.373 35.5632C154.67 35.8303 155.872 36.2692 156.979 36.8798C158.086 37.4522 159.002 38.2536 159.727 39.284C160.452 40.3143 160.814 41.7263 160.814 43.5199C160.814 45.1609 160.452 46.5538 159.727 47.6987C159.04 48.8054 158.124 49.7022 156.979 50.3891C155.872 51.076 154.613 51.5721 153.201 51.8774C151.789 52.1827 150.377 52.3354 148.965 52.3354C146.828 52.3354 144.863 52.0301 143.069 51.4195C141.276 50.8089 139.673 49.7022 138.261 48.0994L142.84 43.8062C143.718 44.7984 144.653 45.6189 145.645 46.2676C146.675 46.8782 147.916 47.1835 149.366 47.1835C149.862 47.1835 150.377 47.1263 150.911 47.0118C151.446 46.8973 151.942 46.7065 152.4 46.4393C152.858 46.1722 153.22 45.8478 153.487 45.4662C153.793 45.0464 153.945 44.5694 153.945 44.0351C153.945 43.0811 153.583 42.3751 152.858 41.9172C152.133 41.4592 151.217 41.0967 150.11 40.8295C149.003 40.5242 147.801 40.2571 146.504 40.0281C145.244 39.761 144.061 39.3603 142.955 38.826C141.848 38.2536 140.932 37.4713 140.207 36.4791C139.482 35.4869 139.119 34.113 139.119 32.3576C139.119 30.8311 139.425 29.5145 140.035 28.4078C140.684 27.263 141.524 26.328 142.554 25.6029C143.584 24.8778 144.767 24.3436 146.103 24.0001C147.439 23.6567 148.793 23.4849 150.167 23.4849C151.999 23.4849 153.812 23.8093 155.605 24.4581C157.399 25.0686 158.849 26.1372 159.956 27.6637L155.376 31.7852Z" fill="#2E1710"/>
<rect width="74.782" height="12" transform="translate(0 58.3359)" fill="#D3B38D"/>
<rect width="74.782" height="12" transform="translate(74.782 58.3359)" fill="#B77142"/>
<rect width="74.782" height="12" transform="translate(149.564 58.3359)" fill="#9B412D"/>
<rect width="74.782" height="12" transform="translate(224.346 58.3359)" fill="#572117"/>
<rect width="74.782" height="12" transform="translate(299.128 58.3359)" fill="#2B1812"/>
</svg>
