<svg width="18" height="18" viewBox="0 0 18 18" fill="none" xmlns="http://www.w3.org/2000/svg">
<g clip-path="url(#clip0_26911_4592)">
<path d="M9 16.5C4.85775 16.5 1.5 13.1422 1.5 9C1.5 4.85775 4.85775 1.5 9 1.5C13.1422 1.5 16.5 4.85775 16.5 9C16.5 13.1422 13.1422 16.5 9 16.5ZM9 15C10.5913 15 12.1174 14.3679 13.2426 13.2426C14.3679 12.1174 15 10.5913 15 9C15 7.4087 14.3679 5.88258 13.2426 4.75736C12.1174 3.63214 10.5913 3 9 3C7.4087 3 5.88258 3.63214 4.75736 4.75736C3.63214 5.88258 3 7.4087 3 9C3 10.5913 3.63214 12.1174 4.75736 13.2426C5.88258 14.3679 7.4087 15 9 15V15ZM7.9665 6.31125L11.6258 8.75025C11.6669 8.77764 11.7006 8.81476 11.724 8.85834C11.7473 8.90191 11.7595 8.95057 11.7595 9C11.7595 9.04943 11.7473 9.09809 11.724 9.14166C11.7006 9.18524 11.6669 9.22236 11.6258 9.24975L7.96575 11.6888C7.92062 11.7187 7.86824 11.7358 7.81415 11.7384C7.76007 11.7409 7.7063 11.7288 7.65856 11.7033C7.61081 11.6777 7.57086 11.6398 7.54294 11.5934C7.51503 11.547 7.50019 11.4939 7.5 11.4398V6.56025C7.5001 6.50599 7.51492 6.45277 7.54287 6.40626C7.57082 6.35975 7.61086 6.3217 7.65873 6.29615C7.7066 6.27059 7.76051 6.25851 7.8147 6.26117C7.8689 6.26383 7.92136 6.28113 7.9665 6.31125V6.31125Z" fill="#CC452D"/>
</g>
<defs>
<clipPath id="clip0_26911_4592">
<rect width="18" height="18" fill="white"/>
</clipPath>
</defs>
</svg>
