<svg width="22" height="22" viewBox="0 0 22 22" fill="none" xmlns="http://www.w3.org/2000/svg">
<path fill-rule="evenodd" clip-rule="evenodd" d="M4.72446 1.6626C3.40531 1.6626 2.33594 2.73198 2.33594 4.05112C2.33594 5.37026 3.40531 6.43964 4.72446 6.43964C6.0436 6.43964 7.11298 5.37026 7.11298 4.05112C7.11298 2.73198 6.0436 1.6626 4.72446 1.6626ZM3.63877 4.05112C3.63877 3.45151 4.12485 2.96543 4.72446 2.96543C5.32407 2.96543 5.81015 3.45151 5.81015 4.05112C5.81015 4.65073 5.32407 5.13681 4.72446 5.13681C4.12485 5.13681 3.63877 4.65073 3.63877 4.05112Z" fill="#CC452D"/>
<path fill-rule="evenodd" clip-rule="evenodd" d="M2.33594 7.52533C2.33594 7.16557 2.62759 6.87392 2.98735 6.87392H6.46157C6.82133 6.87392 7.11298 7.16557 7.11298 7.52533V18.8165C7.11298 19.1763 6.82133 19.4679 6.46157 19.4679H2.98735C2.62759 19.4679 2.33594 19.1763 2.33594 18.8165V7.52533ZM3.63877 8.17675V18.1651H5.81015V8.17675H3.63877Z" fill="#CC452D"/>
<path fill-rule="evenodd" clip-rule="evenodd" d="M8.41581 7.52533C8.41581 7.16557 8.70746 6.87392 9.06723 6.87392H12.5414C12.9012 6.87392 13.1929 7.16557 13.1929 7.52533V7.90231L13.5709 7.74028C14.2209 7.46172 14.916 7.28704 15.6189 7.22313C18.0291 7.00402 20.1413 8.89798 20.1413 11.3298V18.8165C20.1413 19.1763 19.8496 19.4679 19.4899 19.4679H16.0157C15.6559 19.4679 15.3642 19.1763 15.3642 18.8165V12.7367C15.3642 12.4487 15.2499 12.1726 15.0462 11.969C14.8426 11.7653 14.5665 11.651 14.2785 11.651C13.9906 11.651 13.7145 11.7653 13.5108 11.969C13.3072 12.1726 13.1929 12.4487 13.1929 12.7367V18.8165C13.1929 19.1763 12.9012 19.4679 12.5414 19.4679H9.06723C8.70746 19.4679 8.41581 19.1763 8.41581 18.8165V7.52533ZM9.71864 8.17675V18.1651H11.89V12.7367C11.89 12.1032 12.1417 11.4956 12.5896 11.0477C13.0375 10.5998 13.6451 10.3481 14.2785 10.3481C14.912 10.3481 15.5196 10.5998 15.9675 11.0477C16.4154 11.4956 16.6671 12.1032 16.6671 12.7367V18.1651H18.8384V11.3298C18.8384 9.67576 17.3958 8.3698 15.7369 8.52061C15.1688 8.57225 14.6072 8.71358 14.0841 8.93777L12.798 9.48895C12.5968 9.5752 12.3656 9.55457 12.1828 9.43403C12 9.31349 11.89 9.10917 11.89 8.8902V8.17675H9.71864Z" fill="#CC452D"/>
</svg>
