<svg width="40" height="40" viewBox="0 0 40 40" fill="none" xmlns="http://www.w3.org/2000/svg">
<g clip-path="url(#clip0_27059_5454)">
<path d="M12.9194 9.06475L30.4327 19.2814C30.5582 19.3549 30.6623 19.4599 30.7346 19.5861C30.807 19.7123 30.845 19.8552 30.845 20.0006C30.845 20.146 30.807 20.2889 30.7346 20.4151C30.6623 20.5412 30.5582 20.6463 30.4327 20.7198L12.9194 30.9364C12.7925 31.0105 12.6483 31.0497 12.5013 31.05C12.3544 31.0504 12.21 31.0119 12.0828 30.9384C11.9556 30.865 11.85 30.7592 11.7768 30.6318C11.7036 30.5045 11.6654 30.36 11.666 30.2131V9.78475C11.666 9.63812 11.7046 9.49408 11.7781 9.36716C11.8515 9.24025 11.9571 9.13496 12.0843 9.06192C12.2114 8.98888 12.3556 8.95068 12.5022 8.95118C12.6488 8.95167 12.7927 8.99085 12.9194 9.06475Z" fill="#CC452D"/>
</g>
<defs>
<clipPath id="clip0_27059_5454">
<rect width="40" height="40" fill="white"/>
</clipPath>
</defs>
</svg>
