<svg width="38" height="38" viewBox="0 0 38 38" fill="none" xmlns="http://www.w3.org/2000/svg">
<path d="M32.5059 10.4488C30.6591 10.4469 28.8884 9.71241 27.5825 8.40652C26.2766 7.10063 25.5422 5.33001 25.5402 3.4832C25.5402 3.1753 25.4179 2.88001 25.2002 2.6623C24.9825 2.44458 24.6872 2.32227 24.3793 2.32227H18.5746C18.2667 2.32227 17.9714 2.44458 17.7537 2.6623C17.536 2.88001 17.4137 3.1753 17.4137 3.4832V22.6387C17.4134 23.158 17.2738 23.6678 17.0095 24.1148C16.7451 24.5618 16.3656 24.9297 15.9106 25.1801C15.4556 25.4305 14.9417 25.5542 14.4226 25.5383C13.9035 25.5225 13.3982 25.3676 12.9593 25.0899C12.5204 24.8121 12.1641 24.4217 11.9276 23.9594C11.691 23.4971 11.5828 22.9797 11.6143 22.4613C11.6458 21.9429 11.8159 21.4425 12.1067 21.0122C12.3975 20.5819 12.7984 20.2375 13.2677 20.015C13.4662 19.9207 13.6339 19.7722 13.7513 19.5864C13.8687 19.4007 13.9309 19.1855 13.9309 18.9658V12.7707C13.9309 12.601 13.8938 12.4333 13.8221 12.2795C13.7504 12.1257 13.6458 11.9895 13.5157 11.8805C13.3857 11.7715 13.2333 11.6923 13.0694 11.6485C12.9054 11.6048 12.7338 11.5975 12.5668 11.6272C7.38753 12.5501 3.48242 17.2838 3.48242 22.6387C3.48242 25.5637 4.64439 28.369 6.71271 30.4373C8.78103 32.5056 11.5863 33.6676 14.5113 33.6676C17.4364 33.6676 20.2416 32.5056 22.3099 30.4373C24.3783 28.369 25.5402 25.5637 25.5402 22.6387V16.8761C27.6904 17.9979 30.0807 18.581 32.5059 18.5754C32.8138 18.5754 33.1091 18.4531 33.3268 18.2354C33.5445 18.0176 33.6668 17.7224 33.6668 17.4145V11.6098C33.6668 11.3019 33.5445 11.0066 33.3268 10.7889C33.1091 10.5711 32.8138 10.4488 32.5059 10.4488ZM31.3449 16.2013C29.0762 16.0002 26.9038 15.1905 25.057 13.8576C24.8834 13.7328 24.6787 13.6584 24.4655 13.6425C24.2523 13.6266 24.0389 13.6699 23.8487 13.7676C23.6586 13.8653 23.4991 14.0137 23.3879 14.1962C23.2766 14.3788 23.218 14.5886 23.2184 14.8023V22.6387C23.2184 24.9479 22.301 27.1626 20.6681 28.7955C19.0352 30.4284 16.8206 31.3457 14.5113 31.3457C12.2021 31.3457 9.98741 30.4284 8.35453 28.7955C6.72164 27.1626 5.8043 24.9479 5.8043 22.6387C5.8043 18.8801 8.21905 15.5091 11.609 14.2799V18.2953C10.8585 18.7967 10.2508 19.4841 9.84494 20.2903C9.43913 21.0965 9.24911 21.994 9.2934 22.8955C9.3377 23.797 9.6148 24.6717 10.0977 25.4342C10.5806 26.1967 11.2528 26.8211 12.0488 27.2466C12.8448 27.672 13.7375 27.884 14.6398 27.8618C15.5421 27.8396 16.4233 27.584 17.1974 27.1199C17.9715 26.6559 18.6122 25.9992 19.0571 25.2138C19.5019 24.4284 19.7356 23.5412 19.7355 22.6387V4.64414H23.2909C23.552 6.68896 24.4845 8.58926 25.9422 10.0469C27.3998 11.5045 29.3001 12.4371 31.3449 12.6981V16.2013Z" fill="#CC452D"/>
</svg>
