<svg width="22" height="22" viewBox="0 0 22 22" fill="none" xmlns="http://www.w3.org/2000/svg">
<path fill-rule="evenodd" clip-rule="evenodd" d="M13.7387 3.48144C14.1802 3.40581 14.6747 3.38055 15.14 3.45928C15.9711 3.59988 16.7388 3.98615 17.3456 4.56527C17.7423 4.57424 18.1321 4.4961 18.477 4.38469C18.7689 4.29041 19.0155 4.17657 19.1883 4.08655C19.2743 4.0418 19.3406 4.00362 19.3838 3.97777C19.4053 3.96486 19.421 3.9551 19.4303 3.9492L19.4386 3.94393C19.6963 3.7722 20.0396 3.80562 20.2593 4.02407C20.4789 4.24257 20.5143 4.58558 20.3439 4.84432C20.1635 5.11817 19.913 5.60636 19.6324 6.15334C19.5883 6.23934 19.5434 6.3268 19.498 6.4151C19.337 6.72775 19.172 7.04374 19.0182 7.31485C18.9216 7.48507 18.8183 7.65789 18.7142 7.80723V8.04502C18.7208 8.91846 18.6206 9.78735 18.4173 10.6326C18.2894 11.1645 18.1207 11.687 17.912 12.1954C17.3714 13.5127 16.5737 14.7091 15.5656 15.7147C14.5574 16.7203 13.359 17.5149 12.0403 18.0521C10.7228 18.5888 9.31161 18.8579 7.88905 18.8437C5.82684 18.8454 3.808 18.2513 2.07548 17.1327C1.8203 16.9679 1.71286 16.6486 1.81651 16.3631C1.92016 16.0776 2.20738 15.9016 2.50883 15.9389C2.76971 15.9712 3.03237 15.987 3.29524 15.9861C4.23975 15.9835 5.16627 15.7748 6.01212 15.3816C5.74326 15.2592 5.48657 15.1083 5.24672 14.9305C4.5417 14.4077 4.01717 13.6781 3.74612 12.8433C3.67569 12.6264 3.72384 12.3885 3.87307 12.216C3.87574 12.2129 3.87844 12.2098 3.88116 12.2068C3.72176 12.0647 3.57261 11.9099 3.43529 11.7434C2.81747 10.9946 2.47728 10.0553 2.47226 9.08448L2.47224 9.08111L2.47225 9.03769C2.47225 8.80677 2.5945 8.59311 2.79358 8.4761C2.84404 8.44643 2.89753 8.42411 2.95255 8.40913C2.65869 7.82279 2.50588 7.17533 2.50699 6.51848C2.50665 5.77433 2.70103 5.04304 3.07082 4.39727C3.17758 4.21084 3.36938 4.08904 3.5835 4.07169C3.79763 4.05434 4.00654 4.14367 4.14191 4.31048C4.97794 5.34059 6.02132 6.18331 7.20428 6.78389C7.81239 7.09262 8.45038 7.33381 9.10683 7.50443C9.47487 7.60008 9.84871 7.67355 10.2263 7.72429C10.2097 7.09611 10.3337 6.46826 10.5941 5.88812C10.976 5.03709 11.6295 4.33688 12.4522 3.89732C12.8007 3.71116 13.2632 3.56289 13.7387 3.48144ZM3.94295 10.0368C4.05556 10.3538 4.22307 10.6511 4.44026 10.9143C4.867 11.4316 5.45931 11.7856 6.11699 11.9164C6.40994 11.9747 6.62572 12.2248 6.64051 12.5231C6.6553 12.8214 6.4653 13.0916 6.17955 13.1785C5.94287 13.2505 5.70039 13.3007 5.45515 13.3286C5.61721 13.5375 5.80784 13.7246 6.02272 13.884C6.51014 14.2454 7.0981 14.4459 7.7048 14.4576C7.98006 14.4629 8.22227 14.6407 8.30984 14.9017C8.39741 15.1627 8.31144 15.4506 8.09508 15.6208C7.18382 16.3378 6.13009 16.8378 5.01352 17.0931C5.93895 17.3894 6.90951 17.542 7.89123 17.5408L7.89879 17.5408C9.14956 17.5538 10.3904 17.3175 11.5488 16.8456C12.7072 16.3736 13.7599 15.6756 14.6455 14.7923C15.5311 13.9089 16.2318 12.858 16.7067 11.7008C16.89 11.2542 17.0382 10.7952 17.1506 10.328C17.3294 9.5847 17.4174 8.82066 17.4114 8.05263L17.4114 8.04753V7.5872C17.4114 7.42925 17.4688 7.27668 17.5729 7.15789C17.633 7.08924 17.7383 6.93068 17.8851 6.67193C18.0246 6.42602 18.179 6.1308 18.3396 5.81883C18.3493 5.79996 18.3591 5.78099 18.3689 5.76194C17.9523 5.8524 17.4802 5.89981 16.9853 5.84632C16.8285 5.82938 16.6832 5.75618 16.5764 5.64028C16.1396 5.16662 15.558 4.85133 14.9227 4.74386C14.6408 4.69617 14.3 4.70708 13.9586 4.76557C13.5876 4.82911 13.2648 4.9403 13.0662 5.04642C12.4979 5.35003 12.0465 5.83368 11.7827 6.42151C11.5189 7.00933 11.4577 7.66808 11.6087 8.29445C11.6568 8.49414 11.6079 8.70483 11.4768 8.86293C11.3457 9.02104 11.1476 9.10803 10.9425 9.09765C10.2099 9.0606 9.48514 8.94886 8.77911 8.76536C8.03224 8.57125 7.30637 8.29683 6.6145 7.94558C5.59588 7.42843 4.66822 6.75348 3.86495 5.94774C3.8283 6.13501 3.8097 6.32611 3.80982 6.51845L3.80982 6.52012C3.80892 6.99844 3.9263 7.46958 4.15152 7.89156C4.37675 8.31355 4.70282 8.6733 5.10072 8.93877C5.3422 9.09989 5.44792 9.40135 5.35998 9.678C5.27203 9.95465 5.01164 10.1397 4.72146 10.1318C4.45864 10.1247 4.19802 10.0927 3.94295 10.0368Z" fill="#CC452D"/>
</svg>
