<svg width="38" height="38" viewBox="0 0 38 38" fill="none" xmlns="http://www.w3.org/2000/svg">
<path d="M31.1635 30.7226L22.0792 16.4459L31.0431 6.58522C31.2458 6.3567 31.3503 6.05747 31.3339 5.75243C31.3175 5.44738 31.1815 5.16109 30.9554 4.95564C30.7293 4.75018 30.4314 4.64212 30.1261 4.65487C29.8209 4.66762 29.533 4.80016 29.3249 5.02376L20.7862 14.4157L14.9104 5.18194C14.8056 5.01702 14.6609 4.88121 14.4897 4.7871C14.3184 4.69299 14.1262 4.64362 13.9308 4.64355H6.96522C6.75707 4.64345 6.55271 4.69932 6.37356 4.8053C6.19441 4.91128 6.04704 5.06349 5.9469 5.24597C5.84676 5.42845 5.79752 5.6345 5.80434 5.84254C5.81117 6.05059 5.8738 6.25297 5.98568 6.4285L15.07 20.7037L6.10613 30.5716C6.00145 30.6841 5.92013 30.8162 5.86688 30.9603C5.81364 31.1044 5.78952 31.2576 5.79593 31.4111C5.80235 31.5646 5.83916 31.7153 5.90424 31.8545C5.96933 31.9936 6.06138 32.1185 6.17507 32.2218C6.28877 32.3252 6.42184 32.4049 6.56657 32.4564C6.7113 32.5079 6.86482 32.5302 7.01823 32.5219C7.17163 32.5137 7.32187 32.4751 7.46024 32.4083C7.59862 32.3416 7.72236 32.248 7.82431 32.1331L16.363 22.7411L22.2388 31.9749C22.3444 32.1385 22.4895 32.2729 22.6607 32.3657C22.8319 32.4585 23.0236 32.5068 23.2183 32.5061H30.184C30.3919 32.506 30.596 32.4501 30.7749 32.3442C30.9539 32.2383 31.1011 32.0862 31.2012 31.904C31.3013 31.7217 31.3506 31.516 31.344 31.3081C31.3373 31.1003 31.275 30.8981 31.1635 30.7226ZM23.8554 30.1842L9.07958 6.96543H13.288L28.0696 30.1842H23.8554Z" fill="#CC452D"/>
</svg>
