<svg width="22" height="22" viewBox="0 0 22 22" fill="none" xmlns="http://www.w3.org/2000/svg">
<path fill-rule="evenodd" clip-rule="evenodd" d="M9.55514 7.83536C9.3539 7.71461 9.10326 7.71145 8.89904 7.82708C8.69481 7.94271 8.56857 8.15925 8.56857 8.39394V13.6053C8.56857 13.8399 8.69481 14.0565 8.89904 14.1721C9.10326 14.2877 9.3539 14.2846 9.55514 14.1638L13.8979 11.5582C14.0941 11.4405 14.2142 11.2284 14.2142 10.9996C14.2142 10.7708 14.0941 10.5587 13.8979 10.441L9.55514 7.83536ZM12.2966 10.9996L9.8714 12.4547V9.54446L12.2966 10.9996Z" fill="#CC452D"/>
<path fill-rule="evenodd" clip-rule="evenodd" d="M15.3265 4.60816C12.418 4.38061 9.49622 4.38061 6.58774 4.60816L4.64157 4.76042C3.45811 4.85301 2.48994 5.73998 2.29431 6.91082C1.842 9.61791 1.842 12.3813 2.29431 15.0884C2.48994 16.2592 3.45811 17.1462 4.64157 17.2388L6.58774 17.391C9.49621 17.6186 12.418 17.6186 15.3265 17.391L17.2727 17.2388C18.4561 17.1462 19.4243 16.2592 19.6199 15.0884C20.0722 12.3813 20.0722 9.61791 19.6199 6.91082C19.4243 5.73998 18.4561 4.85301 17.2727 4.76042L15.3265 4.60816ZM6.68935 5.90702C9.53019 5.68477 12.384 5.68477 15.2249 5.90702L17.1711 6.05928C17.7579 6.10519 18.2379 6.54498 18.3349 7.12553C18.7635 9.69046 18.7635 12.3087 18.3349 14.8737C18.2379 15.4542 17.7579 15.894 17.1711 15.9399L15.2249 16.0922C12.384 16.3144 9.53019 16.3144 6.68935 16.0922L4.74319 15.9399C4.15638 15.894 3.67633 15.4542 3.57933 14.8737C3.15077 12.3087 3.15077 9.69046 3.57933 7.12553C3.67633 6.54498 4.15638 6.10519 4.74318 6.05928L6.68935 5.90702Z" fill="#CC452D"/>
</svg>
