<svg width="22" height="22" viewBox="0 0 22 22" fill="none" xmlns="http://www.w3.org/2000/svg">
<path d="M14.7435 6.65728C14.7435 6.17759 15.1324 5.78872 15.6121 5.78872C16.0918 5.78872 16.4806 6.17759 16.4806 6.65728C16.4806 7.13697 16.0918 7.52583 15.6121 7.52583C15.1324 7.52583 14.7435 7.13697 14.7435 6.65728Z" fill="#CC452D"/>
<path fill-rule="evenodd" clip-rule="evenodd" d="M11.2693 6.87442C8.99079 6.87442 7.14368 8.72152 7.14368 11C7.14368 13.2786 8.99079 15.1257 11.2693 15.1257C13.5478 15.1257 15.3949 13.2786 15.3949 11C15.3949 8.72152 13.5478 6.87442 11.2693 6.87442ZM8.44651 11C8.44651 9.44106 9.71032 8.17725 11.2693 8.17725C12.8283 8.17725 14.0921 9.44106 14.0921 11C14.0921 12.559 12.8283 13.8228 11.2693 13.8228C9.71032 13.8228 8.44651 12.559 8.44651 11Z" fill="#CC452D"/>
<path fill-rule="evenodd" clip-rule="evenodd" d="M15.8364 3.03803C12.8255 2.70152 9.71316 2.70152 6.70225 3.03803C4.95468 3.23335 3.54385 4.61001 3.3384 6.36669C2.97835 9.4451 2.97835 12.555 3.3384 15.6334C3.54385 17.3901 4.95468 18.7667 6.70225 18.9621C9.71316 19.2986 12.8255 19.2986 15.8364 18.9621C17.584 18.7667 18.9948 17.3901 19.2002 15.6334C19.5603 12.555 19.5603 9.4451 19.2002 6.36669C18.9948 4.61001 17.584 3.23335 15.8364 3.03803ZM6.84696 4.3328C9.76169 4.00703 12.7769 4.00703 15.6917 4.3328C16.8469 4.46192 17.7724 5.37356 17.9062 6.51803C18.2545 9.49589 18.2545 12.5042 17.9062 15.4821C17.7724 16.6265 16.8469 17.5382 15.6917 17.6673C12.7769 17.9931 9.7617 17.9931 6.84696 17.6673C5.69169 17.5382 4.76626 16.6265 4.6324 15.4821C4.28412 12.5042 4.28412 9.49589 4.6324 6.51803C4.76626 5.37356 5.69169 4.46192 6.84696 4.3328Z" fill="#CC452D"/>
</svg>
